<?xml version="1.0" encoding="UTF-8"?>
<svg width="174.85mm" height="85.236mm" version="1.1" viewBox="0 0 619.54364 302.01729" xmlns="http://www.w3.org/2000/svg" xmlns:xlink="http://www.w3.org/1999/xlink">
 <g transform="translate(2221.9 765.89)">
  <path d="m-2115.7-506.21c-12.375-0.34547-26.483-0.6853-31.351-0.75518-7.5665-0.10861-8.6062-0.30612-7.1637-1.3609 2.0326-1.4863 1.6336-4.715-0.6366-5.1523-1.2863-0.24771-1.6299 0.3482-1.6299 2.8265 0 3.0435-0.1085 3.1335-3.5156 2.9175-1.9336-0.12257-11.528-0.70507-21.322-1.2944-20.171-1.2139-39.529-3.0555-40.308-3.8346-0.8487-0.84875 0.3553-3.0884 2.3198-4.3153 2.7516-1.7184 62.826-0.44505 62.826 1.3316 0 1.719 1.8994 1.5797 3.2276-0.23668 0.8624-1.1795 2.0114-1.3533 5.494-0.83105 2.4219 0.36319 4.4034 1.0343 4.4034 1.4914 0 1.1018 2.5687 1.0731 2.9688-0.0331 0.9406-2.6012 317.91-3.597 423.83-1.3316l28.828 0.61662v4.0708c0 3.5187 0.2687 4.0708 1.9814 4.0708 1.8172 0 1.929-0.3499 1.3489-4.2188l-0.6327-4.2188h10.542l-0.6327 4.2188c-0.5784 3.8572-0.4645 4.2188 1.3286 4.2188 1.7233 0 1.9391-0.50601 1.7795-4.1731-0.1-2.2952 0.015-4.346 0.2547-4.5574 0.2399-0.21137 15.026-0.64509 32.858-0.9638 31.638-0.56547 32.471-0.53373 34.453 1.3127 4.2622 3.9708 3.7619 4.1314-18.594 5.9655-25.859 2.1216-49.13 3.2643-87.188 4.2815-37.484 1.0018-369.29 0.9645-405.47-0.0456zm-25.781-3.1493c0-0.73127 0.2561-1.9969 0.5691-2.8125 0.4079-1.0631 0.01-1.4829-1.4063-1.4829-1.5698 0-1.9753 0.5774-1.9753 2.8125 0 1.875 0.4687 2.8125 1.4062 2.8125 0.7735 0 1.4063-0.59831 1.4063-1.3296zm-48.281-9.9723c-11.344-0.35645-21.363-0.70155-22.266-0.76688-1.4235-0.10307-1.6406-1.1658-1.6406-8.0301v-7.9113l3.9844-0.52258c5.145-0.67481 47.983-3.3423 53.675-3.3423h4.3516l-1.9431 2.4702c-1.0686 1.3586-1.943 3.0461-1.943 3.75s-0.4219 1.2798-0.9375 1.2798-0.9375 0.42188-0.9375 0.9375c0 2.2021 3.3905 0.66172 4.6875-2.1297 1.0098-2.1732 2.1391-3.1108 4.0053-3.3253 2.2099-0.25394 2.8085 0.20236 3.997 3.0469 0.7688 1.84 2.025 3.3455 2.7915 3.3455 0.7666 0 1.3937-0.22775 1.3937-0.5061 0-1.4303-3.9383-7.9436-5.2455-8.6751-1.5515-0.86826 3.8638-1.1994 49.308-3.0152 34.248-1.3684 104.29-2.7869 138.05-2.7958l29.766-8e-3v16.875h5.625v-21.858l-56.016 0.6392c-93.737 1.0696-173.53 4.2544-227.01 9.0605-9.5691 0.86001-12.477 0.75525-11.275-0.40622 0.8056-0.77876 17.604-2.4261 19.056-1.8687 0.8329 0.31961 2.0363 0.15506 2.6743-0.36568 0.638-0.52072 5.3787-1.2236 10.535-1.562 5.1563-0.33838 12.328-1.0231 15.938-1.5215 3.6094-0.49846 10.359-1.065 15-1.2591 4.6407-0.19404 13.289-0.83213 19.219-1.418 5.9297-0.58586 12.996-0.79151 15.703-0.45701 3.0439 0.37613 4.9219 0.25268 4.9219-0.32356 0-1.4575 30.634-2.5784 32.316-1.1824 1.3275 1.1017 5.168 0.50942 6.1216-0.94414 0.8136-1.2402 39.375-2.2508 39.375-1.0319 0 0.61356 1.5827 1.0616 3.75 1.0616 2.7083 0 3.75-0.39063 3.75-1.4062 0-1.1903 2.2675-1.4069 14.766-1.4105 8.1211-2e-3 19.512-0.27773 25.312-0.61199 9.4285-0.54328 10.547-0.44341 10.547 0.94177 0 1.2114 0.9204 1.5495 4.2187 1.5495 3.125 0 4.2188-0.36458 4.2188-1.4062 0-1.1875 2.4792-1.4354 15.938-1.5938 8.7656-0.10312 17.52-0.20859 19.453-0.23437 2.9493-0.0393 3.5639 0.29295 3.8152 2.0625 0.2515 1.7705 0.8797 2.1094 3.9099 2.1094 3.2141 0 3.6753-0.29572 4.2022-2.6948 0.6973-3.175 3.6157-6.1394 7.489-7.6072 2.2087-0.83698 3.5858-0.74251 6.7408 0.46241 3.3124 1.265 4.2267 2.1994 5.5548 5.6769 1.495 3.9146 1.8017 4.1626 5.1472 4.1626 2.9754 0 3.6064-0.3451 3.857-2.1094l0.2995-2.1094 18.281 0.35646c14.198 0.27684 18.449 0.64325 19.031 1.6406 1.0812 1.852 9.094 1.753 9.094-0.11238 0-1.2161 3.18-1.3228 24.609-0.82604 19.278 0.44693 24.835 0.851 25.65 1.8653 1.2553 1.5615 7.8654 1.7507 7.8654 0.22507 0-1.2344 38.556-0.22836 39.372 1.0273 0.9533 1.468 4.7924 2.0628 6.1331 0.95017 1.6402-1.3612 31.057-0.29846 31.955 1.1544 0.3239 0.524 2.805 0.67618 5.8484 0.35873 2.9073-0.30327 9.9266-0.11645 15.598 0.41512 5.6719 0.53158 14.509 1.1596 19.638 1.3957 5.1292 0.23606 11.652 0.85912 14.494 1.3846 2.8425 0.52548 9.5327 1.1539 14.867 1.3964 5.3343 0.24256 10.193 0.7468 10.798 1.1205 0.6047 0.37373 3.6398 0.75017 6.7447 0.83651 8.5562 0.23796 16.426 1.444 16.426 2.5173 0 0.60403-1.8204 0.74687-4.9219 0.38621-5.1009-0.59318-51.28-3.8562-67.734-4.7862-46.132-2.6073-95.215-4.0478-165.7-4.863l-56.016-0.64787v21.862h5.625v-16.875l28.828 0.0113c52.151 0.0203 184.2 3.6466 185.66 5.0983 0.2 0.19996-0.5496 0.8523-1.6658 1.4497-1.1162 0.59735-2.4592 2.319-2.9845 3.826-0.5253 1.5069-1.3357 2.7398-1.8009 2.7398s-0.8458 0.63281-0.8458 1.4062 0.8102 1.4062 1.8005 1.4062c1.2394 0 1.9936-0.87892 2.42-2.8203 1.2465-5.6755 7.0935-5.9483 8.9193-0.41616 0.9717 2.9443 3.7352 4.6108 3.7352 2.2524 0-1.819-2.9969-6.9698-5.0231-8.6335-1.9787-1.6246-1.9531-1.6424 1.7418-1.2078 2.0625 0.24258 8.8125 0.6706 15 0.95117 15.033 0.68165 40.286 2.3188 45.234 2.9324l3.9844 0.49415v15.648l-8.6719 0.52931c-4.7695 0.29112-18.458 0.77839-30.418 1.0828l-21.746 0.5535-0.2854-4.906c-0.4066-6.9904-2.6291-7.3657-2.6291-0.44401v5.2344h-10.312v-5.1562c0-3.9583-0.3267-5.1562-1.4063-5.1562-1.0844 0-1.4062 1.215-1.4062 5.3096v5.3096l-52.031-0.62205-104.06-1.2441-52.031-0.62205v-3.5967c0-3.3142-0.2061-3.5967-2.625-3.5967-3.3313 0-4.875 1.5437-4.875 4.875v2.625h-17.812v-2.625c0-3.3313-1.5437-4.875-4.875-4.875-2.4239 0-2.625 0.27863-2.625 3.6368v3.6368l-68.203 0.81629c-37.512 0.44896-85.289 0.81629-106.17 0.81629h-37.969l0.1312-4.9219c0.097-3.6395-0.2084-4.9219-1.1719-4.9219-0.9544 0-1.303 1.3795-1.303 5.1562v5.1562h-10.312v-5.1562c0-3.9583-0.3267-5.1562-1.4063-5.1562-1.0795 0-1.4062 1.1979-1.4062 5.1562v5.1562l-6.3281-0.17063c-3.4805-0.0938-15.609-0.46225-26.953-0.8187zm-26.572-19.157c1.3151-1.3151 80.365-6.232 127.35-7.9215 60.113-2.1613 160.31-3.427 160.31-2.025 0 0.70147-4.4141 1.036-13.828 1.048-27.349 0.0349-123.11 1.8366-148.36 2.7912-33.43 1.264-75.892 3.439-101.16 5.1819-21.761 1.5008-25.014 1.6246-24.314 0.92527zm589.54-0.53326c-45.464-3.7255-132.44-6.8711-220.31-7.9676-26.555-0.33138-48.457-0.7713-48.672-0.9776-0.2148-0.20629-0.1397-0.62601 0.167-0.9327 0.7358-0.73576 130.26 1.2386 161.47 2.4614 45.782 1.7934 109.19 5.6778 121.41 7.4374l5.1562 0.74271-5.1562-0.0169c-2.8359-9e-3 -9.1641-0.34529-14.062-0.74669zm-586.88-5.4555c0-1.5045 2.2973-2.6642 6.5625-3.3129 2.3203-0.35286 5.168-0.87807 6.3281-1.1671 1.7593-0.43833 2.1094-0.1419 2.1094 1.7863 0 2.1414-0.4249 2.3562-5.7625 2.9141-7.6422 0.79877-9.2375 0.76071-9.2375-0.2204zm593.91 0.1908c-5.8204-0.72634-7.0312-1.2664-7.0312-3.136 0-2.3967 0.9186-2.3627 14.766 0.54773 1.1602 0.24384 2.1094 1.0681 2.1094 1.8317 0 1.3937-2.932 1.619-9.8438 0.75648zm-575.16-3.3982c0-2.1509 0.4711-2.3745 7.0695-3.3559 10.146-1.509 10.743-1.4413 10.743 1.2178 0 2.5424-0.876 2.8355-11.484 3.842-6.259 0.59388-6.3281 0.57527-6.3281-1.704zm561.09 1.6816c-0.5156-0.17903-4.207-0.60358-8.2031-0.94347l-7.2656-0.61799v-2.807c0-2.5567 0.2299-2.763 2.5781-2.3139 1.418 0.27118 4.4766 0.74916 6.7969 1.0622 8.8194 1.1898 9.375 1.4164 9.375 3.8245 0 2.1002-0.9332 2.611-3.2813 1.7957zm-538.59-4.0763c0-2.3036 0.4579-2.8944 2.5781-3.326 2.0245-0.4121 17.583-2.4367 18.725-2.4367 0.1425 0 0.259 1.4264 0.259 3.1698v3.1698l-9.1406 0.6405c-5.0274 0.35227-9.8789 0.85275-10.781 1.1122-1.3017 0.37423-1.6406-0.10703-1.6406-2.3295zm-40.781 0.97338c0.5157-0.53237 6.4219-2.0467 13.125-3.3651 6.7032-1.3184 14.297-2.8139 16.875-3.3233l4.6875-0.92621-5.1562 0.4997c-4.915 0.47633-25.538 4.4166-29.201 5.5792-2.2038 0.69946-2.2803-1.0983-0.096-2.2469 1.8286-0.96134 23.53-4.9548 38.672-7.1164 100.88-14.401 260.3-18.883 401.25-11.281 57.778 3.1163 103.93 7.6161 139.22 13.574 21.562 3.6402 25.54 4.5761 26.144 6.1499 0.2839 0.73977 0.083 1.345-0.4473 1.345-0.5298 0-0.7026 0.42187-0.384 0.9375 0.8471 1.3706-1.0224 1.1932-15.263-1.4483-49.784-9.2346-130.14-14.635-239.03-16.064-37.614-0.49354-46.172-0.83816-46.172-1.8593 0-1.0239 7.17-1.2815 39.141-1.4065l39.141-0.15302-40.502-0.84862c-24.18-0.50664-56.483-0.50649-80.156 3.7e-4l-39.654 0.849 37.734 0.15265c32.849 0.13288 37.734 0.33471 37.734 1.5589 0 1.2127-3.2585 1.4072-23.672 1.4136-26.989 8e-3 -83.484 1.3877-116.02 2.8326-59.176 2.6283-105.74 6.9284-138.75 12.812-18.31 3.264-20.361 3.5131-19.219 2.3338zm603.17-1.5333c-0.6318-0.63182-23.758-5.2167-25.789-5.113-0.9665 0.0493 3.7271 1.2514 10.43 2.6714 12.3 2.6054 16.132 3.2146 15.359 2.4417zm-34.578-6.6509c-3.8672-0.66669-9.9844-1.4424-13.594-1.7237-4.8831-0.38062-3.8034-0.0721 4.2188 1.2056 5.9297 0.94439 12.047 1.72 13.594 1.7237 1.5469 4e-3 -0.3515-0.53888-4.2187-1.2056zm-520.78-0.92404 8.4375-1.2736-7.0312 0.50019c-3.8672 0.2751-8.7188 0.83595-10.781 1.2463-6.2019 1.234 0.2085 0.91063 9.375-0.47297zm36.942-3.7274c14.229-1.2923 30.511-2.7447 36.183-3.2276l10.312-0.87796-10.781 0.43036c-11.819 0.47176-63.041 5.0032-63.67 5.6327-0.6138 0.61376 0.5221 0.53423 27.956-1.9575zm461.57 1.688c-1.1602-0.22346-3.0586-0.22346-4.2188 0-1.1601 0.22345-0.2109 0.40628 2.1094 0.40628s3.2695-0.18283 2.1094-0.40628zm-11.953-1.2575c-3.0937-0.40467-9.8437-0.95089-15-1.2138l-9.375-0.47805 10.781 1.1989c12.37 1.3755 23.398 1.7755 13.594 0.49301zm-26.936-2.5007c-1.4087-0.21391-3.94-0.21821-5.625-0.01-1.685 0.20865-0.5324 0.38367 2.5613 0.38893 3.0938 6e-3 4.4725-0.16545 3.0637-0.37937zm-11.736-0.94582c-1.6758-0.20795-4.418-0.20795-6.0938 0-1.6758 0.20797-0.3047 0.37812 3.0469 0.37812s4.7227-0.17015 3.0469-0.37812zm-12.677-0.9435c-1.9451-0.20294-4.8982-0.19953-6.5625 8e-3 -1.6643 0.20711-0.073 0.37316 3.5365 0.36899 3.6094-4e-3 4.9711-0.1736 3.026-0.37655zm-339.82-0.93976c-2.1914-0.19737-5.7774-0.19737-7.9688 0-2.1914 0.19738-0.3984 0.35888 3.9844 0.35888s6.1758-0.1615 3.9844-0.35888zm325.78 4e-3c-1.9336-0.20225-5.0976-0.20225-7.0312 0-1.9336 0.20227-0.3516 0.36775 3.5156 0.36775s5.4492-0.16548 3.5156-0.36775zm-308.44-0.94366c-2.4492-0.19312-6.457-0.19312-8.9062 0-2.4492 0.19313-0.4453 0.35113 4.4531 0.35113s6.9023-0.158 4.4531-0.35113zm292.53 9.4e-4c-2.4319-0.19242-6.6506-0.19442-9.375-5e-3 -2.7243 0.18998-0.7345 0.34741 4.4217 0.34985 5.1563 3e-3 7.3853-0.15299 4.9533-0.34541zm-270.97-0.94238c-2.9648-0.18605-7.8164-0.18605-10.781 0-2.9649 0.18604-0.5391 0.33827 5.3906 0.33827s8.3555-0.15223 5.3906-0.33827zm250.31 0c-2.9648-0.18605-7.8164-0.18605-10.781 0-2.9649 0.18604-0.5391 0.33827 5.3906 0.33827s8.3555-0.15223 5.3906-0.33827zm-218.91-0.94219c-4.2539-0.17371-11.215-0.17371-15.469 0-4.2539 0.17372-0.7734 0.31584 7.7344 0.31584s11.988-0.14212 7.7344-0.31584zm193.12 0c-4.2539-0.17371-11.215-0.17371-15.469 0-4.2539 0.17372-0.7734 0.31584 7.7344 0.31584s11.988-0.14212 7.7344-0.31584zm138.05 20.462c-5.5835-0.5415-5.6272-0.56892-5.9284-3.7223l-0.3035-3.1768 4.5222 0.57414c2.4873 0.31578 7.3699 0.85438 10.85 1.1969 6.1933 0.60949 6.3281 0.67991 6.3281 3.3058 0 2.6317-0.094 2.68-4.9219 2.5254-2.707-0.0867-7.4531-0.40309-10.547-0.70313zm-477.49-3.9446c0.3372-3.5274-0.5337-3.2978 18.818-4.961l7.2656-0.62442v3.2139c0 3.0724-0.1754 3.2374-3.9844 3.7472-2.1914 0.29331-8.1283 0.81555-13.193 1.1605l-9.2087 0.62725zm458.74 2.3822c-1.0312-0.16099-5.5664-0.56329-10.078-0.89399l-8.2031-0.60129v-6.6528l7.2656 0.6183c18.597 1.5826 17.825 1.3749 18.238 4.9075 0.3515 3.0114 0.2268 3.1639-2.4885 3.0426-1.5723-0.0702-3.7024-0.25939-4.7337-0.42037zm-426.86-4.7497 0.2965-3.6085 8.9063-0.63489c4.8984-0.34919 11.965-0.87116 15.703-1.1599l6.7969-0.52502v7.267l-12.422 0.61172c-6.832 0.33645-14.032 0.84719-16 1.135l-3.5778 0.52324zm386.31 2.136-15.234-0.83845v-7.3172l8.6719 0.61113c23.453 1.6528 22.701 1.5061 23.042 4.4923 0.1692 1.4808-0.042 2.962-0.4687 3.2915-0.4271 0.32952-7.6319 0.22183-16.011-0.23932zm-348.05-4.7324v-3.2066l5.8594-0.51608c3.2226-0.28385 12.082-0.77462 19.688-1.0906l13.828-0.57452v7.3642l-14.212 0.61512c-7.8163 0.33831-16.676 0.61512-19.688 0.61512h-5.4759zm296.95 2.5071-10.078-0.30136v-7.6502l15.234 0.60713c8.3789 0.33392 17.238 0.84344 19.688 1.1323 4.3381 0.51157 4.4531 0.60759 4.4531 3.7184v3.1933l-9.6094-0.19911c-5.2851-0.10951-14.144-0.33472-19.688-0.50046zm-249.69-1.0973c-0.2133-0.21484-0.3878-1.7381-0.3878-3.385 0-2.9122 0.1351-3.0106 4.9219-3.5856 2.707-0.32515 14.098-0.59485 25.312-0.59933l20.391-8e-3v3.2812c0 3.1463-0.1446 3.286-3.5156 3.3958-23.854 0.77759-46.412 1.2126-46.722 0.90102zm-182.99-18.594 0.2129-18.516 0.2761 18.06 0.2762 18.06 2.5578-0.61341c3.4761-0.8336 3.3968-0.67264 3.1332-6.3627-0.1308-2.8253 0.207-5.32 0.7673-5.6663 0.6625-0.40945 1.0011 1.0911 1.0011 4.4366 0 2.7804 0.2085 5.2639 0.4634 5.5187s1.7315 0.2773 3.2813 0.0499c2.7948-0.41022 2.8178-0.46255 2.8178-6.401 0-6.8953 1.8174-8.2992 1.986-1.5342 0.061 2.4492 0.061 4.7695 0 5.1562-0.061 0.38671 1.3656 0.70312 3.1702 0.70312h3.2813v-6.1625c0-5.3647 0.2124-6.1215 1.6406-5.8458 1.2904 0.24909 1.6537 1.3146 1.7017 4.9906 0.059 4.5314 0.1449 4.6739 2.8125 4.6739 2.7046 0 2.7563-0.0954 3.0389-5.6025 0.2587-5.0401 1.1561-6.9971 3.2282-7.0394 0.3867-8e-3 0.7031 2.5169 0.7031 5.6106v5.625h6.5625v-5.4375c0-5.3438 1.0575-7.6875 3.4687-7.6875 0.8633 0 1.2188 1.6247 1.2188 5.5697 0 3.0633 0.3188 5.7667 0.7085 6.0075 0.3896 0.24082 1.8662 0.21654 3.2812-0.054 2.4799-0.47406 2.5728-0.70434 2.5728-6.376 0-4.5007 0.3486-6.0179 1.4829-6.4532 3.6542-1.4022 4.1421-0.75142 4.1421 5.5247 0 6.5254 0.3275 6.8597 5.3906 5.5028 1.9285-0.5168 2.1094-1.1188 2.1094-7.0184v-6.4532h6.5625v12.306l3.0469-0.29378 3.0468-0.29377 0.2755-6.7969 0.2754-6.7969h7.4179v12.301l3.5156-0.29096 3.5156-0.29097 0.2755-6.7969 0.2754-6.7969h2.6948c1.4821 0 3.3621-0.25607 4.1777-0.56905 1.2721-0.48817 1.4829 0.44462 1.4829 6.5625 0 7.6632 0.2175 7.927 5.3906 6.5406 1.946-0.5215 2.1094-1.1014 2.1094-7.4872v-6.9219l3.0469-0.0128c1.6758-7e-3 3.9961-0.26719 5.1562-0.5781 2.0524-0.55001 2.1094-0.37225 2.1094 6.5753v7.1406h7.5v-15l2.5781-0.0103c1.418-6e-3 4.1602-0.27181 6.0938-0.59141l3.5156-0.58109v15.245h7.5v-7.9688c0-7.6365 0.088-7.9691 2.1094-7.9769 1.1601-5e-3 4.3242-0.27419 7.0312-0.59934l4.9219-0.59119v16.306l3.9844-0.28829 3.9843-0.28828 0.269-8.0732 0.269-8.0732 5.7279-0.59869c3.1504-0.32924 7.1426-0.59865 8.8717-0.59865h3.1437v8.5378c0 7.4002 0.1976 8.462 1.4829 7.9688 0.8156-0.31298 2.5031-0.56905 3.75-0.56905 2.2299 0 2.2671-0.1386 2.2671-8.4375v-8.4375l3.0469-7e-3c1.6758-4e-3 5.8945-0.27561 9.375-0.60431l6.3281-0.59766v18.084h8.3696l0.2683-9.1406 0.2683-9.1406 11.016-0.26413 11.016-0.26412v17.872h8.4375v-18.643l11.72-0.28796 11.72-0.28796v18.281h9.375v-18.75h23.438v18.75h9.375v-17.812h23.438v18.75h8.4375v-17.812l4.9218 7e-3c2.7071 4e-3 7.7696 0.2756 11.25 0.60431l6.3282 0.59765v17.541h8.4375v-16.875h5.0254c2.7639 0 6.9827 0.26828 9.375 0.59617l4.3496 0.59619v15.486l3.75 0.35762 3.75 0.35762v-15.518h4.5566c2.5062 0 6.4978 0.26606 8.8703 0.59125l4.3137 0.59126 0.2703 7.6119 0.2703 7.6119 3.9844 0.28828 3.9844 0.28828v-7.5539c0-8.558-0.5837-8.1144 9.1406-6.9464l4.9219 0.59119v14.739h7.5v-14.308l3.5156 0.58109c1.9336 0.3196 4.6758 0.58574 6.0937 0.59141l2.5785 0.0103v14.062h7.5v-6.6718c0-6.4614 0.067-6.654 2.1094-6.1066 1.1601 0.31092 3.4804 0.57106 5.1562 0.5781l3.0469 0.0128v6.4532c0 5.8997 0.1809 6.5016 2.1094 7.0184 5.0913 1.3644 5.3906 1.0455 5.3906-5.744v-6.3349l4.2187 0.33553 4.2188 0.33553v12.936h7.5v-11.768l3.7093 0.35374 3.7093 0.35375 0.2751 6.2335 0.275 6.2335 3.0469 0.29377 3.0469 0.29378v-11.369h6.5625v5.9844c0 5.4136 0.2012 6.0383 2.1094 6.5497 5.0111 1.3429 5.3906 0.98411 5.3906-5.0964 0-5.6512 0.016-5.6854 2.5781-5.3906 2.4652 0.28364 2.5903 0.54902 2.8547 6.0558 0.2683 5.5884 0.3588 5.7712 3.0522 6.1665 1.5266 0.22407 2.9842 0.19886 3.2391-0.0561 0.2549-0.25488 0.4634-2.7428 0.4634-5.5286 0-4.7166 0.1452-5.0446 2.1094-4.7656 1.8945 0.26908 2.1378 0.89628 2.3885 6.159l0.2791 5.8594h3.0689c3.047 0 3.0706-0.0352 3.2926-4.8998 0.2529-5.5421 0.4041-5.8608 2.4148-5.0892 1.0618 0.40744 1.4467 1.93 1.4467 5.723 0 4.7557 0.1904 5.2156 2.3874 5.767 3.1906 0.80078 3.6126 0.18367 3.6126-5.2822 0-3.8588 0.289-4.6563 1.6875-4.6563 1.4519 0 1.6875 0.8507 1.6875 6.0938v6.0938h6.2862l-0.055-4.8576c-0.034-3.0006 0.3775-5.0016 1.0757-5.2344 0.8044-0.26813 1.1303 1.372 1.1303 5.6887 0 6.0252 0.019 6.0682 2.8178 6.479 1.5498 0.22746 3.0264 0.20504 3.2813-0.0499 0.2549-0.2548 0.4634-2.7133 0.4634-5.4633s0.4219-5 0.9375-5c0.5288 0 0.9375 2.6562 0.9375 6.0938 0 4.6355 0.3182 6.0938 1.3296 6.0938 0.7312 0 1.9876 0.25252 2.7919 0.56116 1.2881 0.4943 1.4953-1.6003 1.7388-17.578l0.2764-18.139 0.2129 18.516c0.1507 13.109-0.092 18.516-0.8315 18.516-0.5744 0-5.3205-1.0061-10.547-2.2358-20.575-4.8411-32.734-6.8204-33.205-5.4057-0.4822 1.4465-2.1415 1.3872-1.844-0.0659 0.1474-0.71999-1.5052-1.3722-4.4532-1.7573-3.6608-0.47831-4.9441-0.29099-5.8593 0.85528-1.0635 1.3319-1.1719 1.3319-1.1719-5.1e-4 0-0.89444-1.145-1.6972-2.9297-2.0542-4.3745-0.87487-8.3203-0.70815-8.3203 0.3516 0 0.51563-0.6328 0.9375-1.4063 0.9375-0.7734 0-1.4062-0.57761-1.4062-1.2836 0-0.75495-1.4479-1.5229-3.5156-1.8647-5.4558-0.90179-6.7969-0.72327-6.7969 0.90482 0 0.98862-0.5098 1.3109-1.4829 0.9375-0.8156-0.31298-1.6594-0.56905-1.875-0.56905-0.2157 0-0.3921-0.63281-0.3921-1.4062 0-0.99773-1.0213-1.41-3.5156-1.419-1.9336-7e-3 -4.4649-0.26718-5.625-0.5781-1.5508-0.41558-2.1094-0.16391-2.1094 0.95031 0 0.99163-0.8103 1.5156-2.3438 1.5156-1.3636 0-2.3437-0.53906-2.3437-1.2891 0-1.3394-3.8986-2.4609-8.5547-2.4609-1.8311 0-2.6953 0.47478-2.6953 1.4807 0 1.1804-0.618 1.3474-3.0469 0.82341-1.6758-0.36154-3.3842-1.2388-3.7966-1.9495-0.8787-1.5145-10.969-1.8408-10.969-0.35466 0 0.51563-1.8984 0.9375-4.2188 0.9375-3.1249 0-4.2187-0.36458-4.2187-1.4062 0-1.0378-1.0852-1.4062-4.1421-1.4062-2.2781 0-4.8094-0.25607-5.625-0.56905-0.9731-0.37342-1.4829-0.0511-1.4829 0.9375 0 1.2011-1.0453 1.5066-5.1563 1.5066-3.9583 0-5.1562-0.3267-5.1562-1.4062 0-0.97222-0.9766-1.4062-3.1641-1.4062-1.7402 0-4.4824-0.26367-6.0937-0.58594-2.3985-0.4797-2.9297-0.28506-2.9297 1.0735 0 1.4822-0.7021 1.6005-6.5761 1.1081-4.0726-0.34143-7.1317-1.107-8.0357-2.011-2.1117-2.1118-11.638-2.0563-11.638 0.0677 0 1.332-0.8696 1.4426-6.7969 0.86497-3.7383-0.36433-6.9375-1.0517-7.1093-1.5274-0.4578-1.2669-13.281-1.104-13.281 0.16874 0 1.5174-16.128 0.73968-16.642-0.80248-0.4782-1.4348-13.358-1.6578-13.358-0.23123 0 0.56547-3.9063 0.9375-9.8438 0.9375-8.125 0-9.8437-0.24553-9.8437-1.4062 0-1.1149-1.348-1.4062-6.5072-1.4062-3.5789 0-6.7679 0.42188-7.0866 0.9375-0.3196 0.51721-4.5225 0.9375-9.375 0.9375-4.8524 0-9.0553-0.42029-9.375-0.9375-0.7078-1.1452-13.312-1.2617-13.75-0.12703-0.4444 1.1526-18.418 2.1077-19.093 1.0146-0.8086-1.3084-13.563-1.1387-13.563 0.18041 0 0.78245-4.0102 0.88829-15 0.39592-10.512-0.47095-15-0.36973-15 0.3383 0 0.6323-2.6308 1.0103-7.0313 1.0103-4.0624 0-7.0312-0.39583-7.0312-0.9375 0-1.4803-9.7154-1.1181-11.774 0.43894-2.0196 1.5275-14.476 2.033-14.476 0.58746 0-1.0617-11.603-0.11062-12.031 0.98619-0.3843 0.98346-10.469 1.0767-10.468 0.0968 0-0.95663-10.656-0.24131-11.279 0.75705-0.8215 1.3152-8.4094 2.2205-8.4094 1.0034 0-1.7045-10.249-1.3768-10.911 0.34893-0.6376 1.6617-6.9015 1.9681-6.9015 0.33759 0-1.2837-10.29-0.46349-11.162 0.88969-0.3061 0.47506-1.5058 1.16-2.6659 1.522-1.6131 0.50339-2.1094 0.2868-2.1094-0.92048 0-1.1797-0.5331-1.4359-2.1094-1.0135-1.1601 0.31092-3.6914 0.57106-5.625 0.5781-2.4943 9e-3 -3.5156 0.42132-3.5156 1.419 0 0.78125-0.8333 1.4062-1.875 1.4062-1.0313 0-1.875-0.47622-1.875-1.0583 0-1.6431-9.462-0.0823-11.011 1.8164-0.9498 1.164-1.4236 1.274-1.7819 0.41375-0.6593-1.5834-6.7597-1.475-9.9252 0.17631-1.4092 0.73515-2.7737 0.99457-3.0321 0.57647-0.7479-1.2102-9.2952 0.0221-10.483 1.5114-0.7635 0.95733-1.1847 1.0283-1.4462 0.2437-0.526-1.5779-12.175 0.26642-32.76 5.1868-5.4842 1.3108-10.441 2.3834-11.016 2.3834-0.7395 0-0.9822-5.4063-0.8315-18.516zm371.74 17.819-7.2656-0.31952-9e-4 -3.4762v-3.4762l20.392 0.23016c11.215 0.12659 22.606 0.47335 25.313 0.77058 4.8752 0.53531 4.9219 0.57089 4.9219 3.7542v3.2138l-18.047-0.18866c-9.9258-0.10377-21.316-0.33246-25.312-0.50819zm-129.9-3.7226 0.2929-3.5493 24.238-0.2504 24.237-0.25039-2.5651 3.0629c-1.4108 1.6846-3.5818 3.3477-4.8245 3.6957-1.2427 0.34805-11.127 0.67961-21.965 0.7368l-19.706 0.104zm74.714 2.6458c-2.2405-0.37655-4.2578-1.6044-5.9427-3.617l-2.5508-3.0469h47.042v7.5l-17.578-0.13304c-9.668-0.0731-19.104-0.38957-20.97-0.70313zm-310.15-27.289c0.058-7.2201 0.4915-13.125 0.9627-13.125 0.4762 0 0.8565 5.8274 0.8565 13.125 0 8.3537-0.35 13.125-0.9627 13.125-0.6177 0-0.9246-4.7024-0.8565-13.125zm584.01 0c0-8.4406 0.3471-13.125 0.9726-13.125 0.6313 0 0.929 4.6047 0.8485 13.125-0.068 7.2188-0.5059 13.125-0.9726 13.125s-0.8485-5.9062-0.8485-13.125zm-575.62-2.275c0-12.076-0.1757-13.575-1.6406-13.996-0.9024-0.25919-0.431-0.3956 1.0474-0.30312l2.6881 0.16813-0.089 13.125c-0.049 7.2188-0.098 13.441-0.1099 13.828-0.012 0.38671-0.4431 0.70312-0.9587 0.70312-0.5817 0-0.9375-5.1333-0.9375-13.525zm567.15 13.291c-0.018-0.12891-0.1235-6.5797-0.2344-14.335l-0.2017-14.101 2.5896 0.38059c1.4243 0.20933 2.796 0.71448 3.0482 1.1226s-0.3857 0.52118-1.4177 0.25132c-1.8135-0.47425-1.8763-0.0323-1.8763 13.212 0 8.5104-0.3553 13.703-0.9375 13.703-0.5156 0-0.9522-0.10547-0.9702-0.23437zm-558.72-16.572c0-13.697-0.1493-15.076-1.6406-15.145-1.0527-0.0489-0.6328-0.52032 1.1718-1.3156 1.5469-0.68168 3.0675-1.0824 3.3791-0.89042 0.3117 0.19197 0.5226 7.4224 0.4688 16.068-0.088 14.179-0.2585 15.75-1.7385 16.035-1.5076 0.29102-1.6406-0.90522-1.6406-14.752zm548.87 13.937c-0.3379-0.54668-0.4683-7.9241-0.2898-16.394 0.314-14.893 0.3864-15.382 2.1996-14.83 1.0313 0.31364 2.5079 0.92825 3.2813 1.3658 1.1835 0.66958 1.1464 0.80011-0.2344 0.8241-1.4929 0.026-1.6406 1.3787-1.6406 15.029 0 12.435-0.231 15-1.3509 15-0.743 0-1.6274-0.44728-1.9652-0.99396zm-539.5-17.15c0-14.837-0.157-16.447-1.6406-16.835-1.0905-0.28497-0.8389-0.46522 0.75-0.5375 1.3148-0.0598 2.9065-0.62466 3.5371-1.2552 0.9036-0.90361 1.0922 2.6187 0.8906 16.628-0.2312 16.065-0.4137 17.805-1.8965 18.09-1.512 0.29052-1.6406-0.97093-1.6406-16.091zm529.69-1.5437c0-16.305 0.4947-19.867 2.3437-16.875 0.3187 0.51563 1.5038 0.98644 2.6335 1.0462 1.5861 0.084 1.6803 0.20644 0.4134 0.5375-1.4833 0.38762-1.6406 1.995-1.6406 16.766 0 15.713-0.072 16.338-1.875 16.338-1.8092 0-1.875-0.625-1.875-17.812zm-519.38-1.4062c0-17.333-9e-4 -17.344-2.1094-17.44-3.3204-0.15139 7.7207-3.5315 11.748-3.5966 2.1654-0.035 3.7451-0.57863 4.0591-1.3969 0.3307-0.86182 2.6392-1.5672 6.4722-1.9777 3.7441-0.40097 6.144-1.1224 6.4583-1.9416 0.351-0.91473 2.1956-1.3036 6.1841-1.3036 4.0261 0 5.8318-0.38552 6.1911-1.3218 0.3678-0.95869 2.3548-1.3391 7.233-1.3848 5.2176-0.0488 6.9892-0.42304 7.9-1.6686 0.9656-1.3206 2.5058-1.5662 8.675-1.3832 5.965 0.17687 7.5009-0.0506 7.5009-1.1111 0-1.5014 5.6706-2.9898 6.5004-1.7062 0.8395 1.2987 11.312 0.10851 11.312-1.2856 0-1.3849 7.6689-2.4382 8.5248-1.1709 0.7423 1.099 10.511-0.21365 11.369-1.5278 0.4456-0.68232 4.3493-0.93881 11.484-0.75457 8.9869 0.23206 10.809 0.048 10.809-1.0919 0-1.0326 1.5619-1.4584 6.3281-1.7252 3.4805-0.19477 6.7289-0.0199 7.2188 0.38877 1.5131 1.2621 10.589 0.84772 11.984-0.54721 1.3889-1.3889 14.781-2.5837 14.781-1.3187 0 1.1388 11.682 0.86434 12.848-0.30191 1.4755-1.4755 17.152-2.3634 17.152-0.97147 0 1.5492 12.842 1.4509 13.358-0.10222 0.5143-1.5462 19.454-2.3163 19.454-0.79098 0 1.3115 12.786 1.3942 13.594 0.0878 0.3197-0.51721 4.5226-0.9375 9.375-0.9375 4.8525 0 9.0554 0.42029 9.375 0.9375 0.8074 1.3063 13.594 1.2237 13.594-0.0878 0-1.384 18.572-0.76463 19.488 0.6499 0.9434 1.4563 13.324 1.7419 13.324 0.30742 0-1.4678 15.539-0.70507 17.083 0.83854 1.2163 1.2163 12.917 1.5521 12.917 0.37072 0-1.265 13.392-0.0703 14.781 1.3187 1.4298 1.4298 10.532 1.798 11.984 0.4848 0.4899-0.44292 3.7383-0.60471 7.2188-0.35953 4.8624 0.34252 6.3281 0.77817 6.3281 1.8809 0 1.2369 1.3469 1.348 9.7531 0.80457 7.7638-0.50195 10.022-0.36193 11.07 0.68649 1.6259 1.6259 12.927 3.1068 12.927 1.6939 0-1.3 6.7469-0.26928 7.9688 1.2174 1.1594 1.4108 11.496 2.5817 11.907 1.3489 0.4621-1.3862 6.3745 0.15638 6.3745 1.6632 0 1.0605 1.5359 1.288 7.5009 1.1111 6.1692-0.18293 7.7094 0.0626 8.675 1.3832 0.9108 1.2456 2.6824 1.6198 7.9 1.6686 4.8782 0.0456 6.8652 0.42607 7.233 1.3848 0.3573 0.93103 2.1449 1.3218 6.0469 1.3218 3.7138 0 5.9141 0.45128 6.676 1.3692 0.6249 0.75306 3.6654 1.6553 6.7566 2.0051 3.3867 0.38315 5.8149 1.143 6.11 1.912 0.2827 0.73672 1.9334 1.3004 3.905 1.3334 3.9426 0.0661 14.869 3.4484 11.618 3.5966-2.108 0.0961-2.1094 0.10732-2.1094 17.44v17.344h-4.6875v-36.328l-2.9622-0.59245c-1.6293-0.32585-3.0901-0.46465-3.2463-0.30846s-0.3338 8.1748-0.3946 17.819l-0.1107 17.535h-5.4349l-0.2538-18.984-0.2538-18.984-3.5156-0.29097-3.5156-0.29096v37.376l-3.0469-0.62254-3.0469-0.62254-0.253-19.311c-0.2501-19.083-0.2777-19.317-2.3438-19.871-4.5519-1.2201-4.4344-1.7206-4.4344 18.892v19.478l-3.75-0.35762-3.75-0.35762v-39.902l-3.0469-0.46353c-1.6758-0.25494-3.3633-0.27792-3.75-0.0511-0.3867 0.22685-0.7031 9.1445-0.7031 19.817v19.405l-4.2188-0.33553-4.2187-0.33553v-20.531c0-18.923-0.1285-20.532-1.6406-20.543-0.9024-8e-3 -2.5899-0.26718-3.75-0.5781l-2.1094-0.56528v41.052l-4.9219-0.49477-4.9219-0.49478-0.2523-20.859-0.2523-20.859h-7.4641v40.312l-3.9844-0.0128c-8.8315-0.0284-8.2031 1.6666-8.2031-22.128v-20.984h-7.5v41.25l-3.5156-0.0103c-1.9336-6e-3 -5.0977-0.27181-7.0313-0.59141l-3.5156-0.5811v-41.738l-3.5156-0.44062c-1.9336-0.24234-3.8321-0.2636-4.2188-0.0472-0.3867 0.21636-0.7031 9.7108-0.7031 21.099v20.705l-6.3281-0.59765c-3.4805-0.32871-7.4883-0.60065-8.9063-0.60431l-2.5781-7e-3v-20.984c0-20.969 0-20.985-2.1094-21.55-5.6667-1.5186-5.3906-2.5758-5.3906 20.638v21.229l-6.3281-0.59765c-3.4805-0.32871-7.6992-0.60065-9.375-0.60431l-3.0469-7e-3v-42.188h-8.4375v41.53l-8.5815-0.60914c-4.7199-0.33502-9.8009-0.60913-11.291-0.60913-1.6238 0-2.6486-0.46958-2.5574-1.1719 0.084-0.64454 0.1022-10.161 0.041-21.148l-0.111-19.976-3.9844 0.28828-3.9844 0.28828-0.2499 20.625-0.25 20.625-11.685-0.2877-11.685-0.28769-0.2522-20.806-0.2522-20.806h-8.4375l-0.2523 20.859-0.2523 20.859h-23.366l-0.2523-20.859-0.2524-20.859h-8.4375l-0.2523 20.859-0.2523 20.859h-23.364l-0.2527-20.391-0.2527-20.391-3.9843-0.28828-3.9844-0.28828v20.708c0 15.743-0.281 20.798-1.1719 21.081-0.6445 0.20515-5.707 0.54456-11.25 0.75424l-10.078 0.38124v-40.942h-8.4375v40.996l-4.3496 0.59619c-2.3923 0.32789-6.611 0.59617-9.375 0.59617h-5.0254v-41.364l-3.5156 0.29096-3.5157 0.29097-0.2519 20.728-0.252 20.728-5.7449 0.60046c-3.1597 0.33026-7.1596 0.60047-8.8887 0.60047h-3.1437v-20.101c0-11.056-0.356-20.321-0.7911-20.59-0.435-0.2689-2.3335-0.2386-4.2187 0.0673l-3.4277 0.55626v40.76l-3.5156 0.5811c-1.9336 0.3196-5.0977 0.58574-7.0313 0.59141l-3.5156 0.0103v-40.312h-7.5v41.016l-2.9297 0.58593c-1.6113 0.32227-4.3535 0.58594-6.0937 0.58594h-3.1641v-39.376h-7.5v20.056c0 22.309 0.3493 21.194-6.6392 21.194h-3.6733v-39.594l-2.1094 0.56528c-1.1601 0.31092-2.8392 0.57106-3.7313 0.5781-1.4784 0.0116-1.6444 1.777-1.875 19.935l-0.2531 19.922-3.9843 0.28828-3.9844 0.28828v-18.749c0-10.312-0.3164-18.934-0.7031-19.161s-2.0742-0.20387-3.75 0.0511l-3.0469 0.46353v39.162h-2.2671c-1.2469 0-2.9344 0.25607-3.75 0.56905-1.3226 0.50756-1.4829-1.5187-1.4829-18.75v-19.319l-2.1094 0.0143c-4.287 0.0292-4.399 0.51293-4.667 20.147l-0.2549 18.67-3.0468 0.62248-3.0469 0.62248v-36.438l-3.5156 0.29096-3.5157 0.29097-0.2538 18.411c-0.2476 17.956-0.3037 18.424-2.2721 18.939-1.11 0.29027-2.378 0.30541-2.8178 0.0336-0.4397-0.27178-0.7568-8.0949-0.7047-17.385 0.052-9.2898-0.1175-17.103-0.3769-17.362-0.2595-0.25948-1.7676-0.18717-3.3514 0.16067l-2.8795 0.63243v17.638c0 18.211-0.1152 18.776-3.8267 18.776-0.4917 0-0.8608-7.4362-0.8608-17.344zm-44.57-1.364c2.8093-3.1043 16.431-11.739 26.288-16.665 42.815-21.393 103.21-32.746 201.56-37.889 27.965-1.4624 118.56-1.4641 146.25-3e-3 95.907 5.0605 154.92 15.798 197.28 35.896 11.052 5.2432 28.322 15.861 30.952 19.03 1.032 1.2435 0.9327 1.4636-0.6603 1.4636-1.0313 0-2.3869-0.6168-3.0126-1.3707-2.2522-2.7137-16.616-11.275-25.342-15.105-40.31-17.691-105.49-28.973-197.34-34.158-29.579-1.6696-92.763-2.193-123.75-1.025-126.48 4.7672-209.86 21.05-245.82 47.999-5.3676 4.0233-9.4474 5.1863-6.4066 1.8263zm-5.118-1.4486c0-0.77344-0.4219-1.4062-0.9375-1.4062-1.3425 0-1.1596-5.9379 0.2344-7.6087 4.5445-5.4468 30.83-20.225 47.35-26.621 3.7415-1.4486 6.6272-2.8093 6.4127-3.0238-0.5724-0.57235-17.992 6.5871-27.997 11.507-5.3187 2.6152-7.6071 3.4289-5.9361 2.1106 4.7728-3.7654 19.195-11.736 28.541-15.773 4.9786-2.1507 13.957-6.161 19.952-8.9119 6.9621-3.1947 11.619-4.8136 12.891-4.481 1.423 0.37212 1.9907 0.0884 1.9907-0.99502 0-1.4592 1.4444-1.9184 4.9219-1.5646 0.9023 0.0918 1.6406-0.26666 1.6406-0.79656 0-0.52989 0.8788-1.4338 1.953-2.0086 1.5365-0.82233 2.3019-0.7294 3.5894 0.43577 0.9001 0.81453 2.2361 1.4513 2.9689 1.4151 0.7991-0.0395 0.6098-0.34898-0.4726-0.77306-1.7504-0.68575-1.7432-0.76899 0.2344-2.7466 2.0986-2.0986 4.8519-2.7406 4.8519-1.1314 0 0.49944 0.6328 0.66524 1.4062 0.36845 0.7735-0.2968 1.4063-1.0781 1.4063-1.7362 0-1.5623 3.9615-2.5899 4.7937-1.2434 0.8465 1.3696 3.6438 0.25875 3.6438-1.4471 0-1.6133 4.9556-3.0768 5.4452-1.6081 0.5484 1.6452 2.7372 1.1475 3.2293-0.73439 0.5138-1.9646 5.6092-3.6876 6.1457-2.0781 0.5266 1.5799 2.6362 1.1835 4.0498-0.76091 1.4315-1.969 6.4425-3.5236 6.4425-1.9987 0 1.4741 2.6218 1.1296 3.5122-0.46151 0.4362-0.77927 2.1408-1.8034 3.788-2.2758 2.358-0.67625 3.1673-0.55135 3.8044 0.58705 0.6998 1.2506 1.0637 1.1729 2.6917-0.57461 2.0928-2.2463 8.7037-3.8166 8.7037-2.0674 0 0.58309 0.8437 1.0602 1.875 1.0602 1.0312 0 1.875-0.60791 1.875-1.3509 0-1.7404 0.5797-2.046 5.3906-2.8421 3.2041-0.53017 3.9844-0.38493 3.9844 0.74159 0 0.93932 0.6178 1.2393 1.875 0.91056 1.0312-0.26968 1.875-1.0212 1.875-1.67 0-0.64885 1.3184-1.4434 2.9297-1.7657 4.377-0.8754 7.5719-0.71295 6.914 0.35156-0.3286 0.53171 0.4591 0.9375 1.8197 0.9375 1.4938 0 2.3991-0.5239 2.3991-1.3884 0-1.3888 1.5498-1.9471 7.2656-2.6172 2.0861-0.24456 3.0469 0.0351 3.0469 0.88668 0 0.70181 1.0214 1.2439 2.3437 1.2439 1.3784 0 2.3438-0.53794 2.3438-1.306 0-1.7698 2.0903-2.444 7.5767-2.444 3.2647 0 4.6108 0.37258 4.6108 1.2762 0 0.8558 0.7721 1.1286 2.3437 0.8282 1.2891-0.24642 2.3438-0.97892 2.3438-1.6278 0-1.3352 4.1027-2.3516 9.4922-2.3516 2.6042 0 3.6328 0.39818 3.6328 1.4062 0 2.1987 4.3696 1.7856 4.9591-0.46875 0.4361-1.6673 1.2788-1.875 7.6094-1.875 5.703 0 7.119 0.27971 7.119 1.4062 0 0.875 0.8854 1.4062 2.3437 1.4062 1.7188 0 2.3438-0.5 2.3438-1.875 0-1.7279 0.625-1.875 7.9687-1.875 7.3438 0 7.9688 0.14706 7.9688 1.875 0 2.6982 5.5853 2.6982 6.2909 0 0.4439-1.6975 1.2787-1.875 8.8184-1.875 7.7965 0 8.3282 0.12387 8.3282 1.9402 0 1.4758 0.5049 1.8685 2.1094 1.6406 1.7251-0.24501 2.1093-0.89275 2.1093-3.5556v-3.256l-20.625 0.22764c-76.141 0.8404-144.49 12.627-196.91 33.956-5.0494 2.0546-9.3287 3.5877-9.5094 3.407s4.2978-2.3038 9.9523-4.7178c52.025-22.211 109.64-33.531 182.64-35.889l18.984-0.61298v-2.6308c0-3.2343 1.5187-4.1141 9.7049-5.6225 3.5501-0.65413 5.922-1.5099 5.4614-1.9705-0.4606-0.46058-3.829-0.13757-7.7559 0.74377-8.474 1.9019-10.554 2.072-11.16 0.91286-0.6369-1.2172 10.88-5.1422 15.179-5.1731 1.9032-0.0137 3.7617-0.51252 4.1301-1.1086 0.6866-1.1109-6.9377-0.65644-11.575 0.68991-3.0734 0.89235-2.6381-0.89065 1.2748-5.2217 1.9925-2.2054 4.884-4.1953 7.0313-4.8386l3.647-1.0927v-20.945c0-13.339 0.3574-20.998 0.3574-20.998l1.3978 0.0521s0.1198 14.224 0.1198 20.866v20.865l4.6209 2.1199c2.878 1.3203 5.3533 3.3048 6.5625 5.2614 2.8999 4.692 2.5346 5.2589-2.4261 3.766-4.8084-1.4471-8.7573-1.7138-8.7573-0.5915 0 0.39765 2.4614 1.1908 5.4699 1.7625 7.1771 1.364 15.096 4.83 13.412 5.8706-0.7131 0.44072-3.5039 0.0781-6.5467-0.85062-6.5767-2.0073-12.335-2.9333-12.335-1.9836 0 0.39408 2.8143 1.2351 6.2541 1.8689 7.958 1.4663 9.4898 2.3211 9.8555 5.4995 0.2868 2.4928 0.4991 2.5854 6.3904 2.7884 82.883 2.8555 137.86 12.93 190.6 34.924 9.2309 3.8501 8.8948 4.7882-0.3985 1.1123-50.313-19.901-120-31.64-190.67-32.119-10.828-0.0733-20.215-0.0827-20.859-0.0208-0.6929 0.0666-1.1719 1.4538-1.1719 3.3938 0 2.6562 0.3571 3.2812 1.875 3.2812 1.25 0 1.875-0.625 1.875-1.875 0-1.7419 0.625-1.875 8.8021-1.875 7.8075 0 8.7873 0.18537 8.6719 1.6406-0.095 1.2 0.6881 1.7195 2.9166 1.9344 2.548 0.24568 3.0469-0.023 3.0469-1.6406 0-1.7949 0.5473-1.9344 7.5878-1.9344 6.8656 0 7.6357 0.18325 8.0912 1.9254 0.3743 1.431 1.1342 1.8523 2.9592 1.6406 1.357-0.1574 2.3507-0.80908 2.2212-1.4567-0.1711-0.85519 1.6894-1.1719 6.8846-1.1719 6.3306 0 7.1733 0.20766 7.6094 1.875 0.5895 2.2544 4.9591 2.6674 4.9591 0.46875 0-1.0081 1.0286-1.4062 3.6328-1.4062 5.3895 0 9.4922 1.0164 9.4922 2.3516 0 1.8342 4.5435 2.3697 4.8889 0.57622 0.4895-2.5419 11.986-1.2431 11.986 1.3541 0 0.80761 0.9344 1.3431 2.3437 1.3431 1.4407 0 2.3438-0.53281 2.3438-1.3828 0-1.0391 0.7573-1.2568 3.0469-0.87574 6.3808 1.0619 7.2656 1.3962 7.2656 2.7452 0 1.6474 4.3511 1.9287 4.8887 0.31604 0.5138-1.5413 9.1738-0.13546 9.1738 1.4892 0 0.6817 0.8437 1.4601 1.875 1.7298 1.2572 0.32877 1.875 0.0288 1.875-0.91057 0-1.1265 0.7803-1.2718 3.9844-0.74158 4.8109 0.79607 5.3906 1.1017 5.3906 2.8421 0 0.74301 0.8437 1.3509 1.875 1.3509 1.0312 0 1.875-0.47708 1.875-1.0602 0-1.7228 6.1842-0.25566 8.4428 2.003 1.7328 1.7328 2.1774 1.8272 3.1173 0.66186 1.3943-1.7288 7.1899-0.35578 7.1899 1.7034 0 0.7587 0.8437 1.3794 1.875 1.3794 1.0312 0 1.875-0.42991 1.875-0.95536 0-1.5249 5.011 0.0296 6.4425 1.9987 1.4136 1.9444 3.5232 2.3408 4.0498 0.76092 0.5365-1.6095 5.6319 0.11351 6.1457 2.0781 0.4921 1.8819 2.6809 2.3796 3.2293 0.73439 0.4896-1.4687 5.4452-6e-3 5.4452 1.6081 0 1.7058 2.7973 2.8167 3.6438 1.4471 0.8322-1.3465 4.7937-0.31891 4.7937 1.2434 0 1.5067 2.5637 2.5583 3.3066 1.3563 0.8799-1.4237 2.038-1.0669 4.7775 1.472 1.7119 1.5865 2.7719 2.0189 3.2104 1.3095 0.754-1.2201 4.643 0.42902 4.643 1.9689 0 0.49141 0.7383 0.8316 1.6406 0.75598 3.4479-0.28895 4.9219 0.21273 4.9219 1.6752 0 1.0744 0.5688 1.3669 1.9536 1.0047 1.2095-0.31628 5.4055 1.1004 11.016 3.7191 4.9841 2.3265 12.648 5.7217 17.031 7.545 9.8186 4.0845 17.358 7.8338 25.312 12.588 9.8538 5.8895 11.427 7.7906 3.023 3.6525-14.48-7.1297-44.612-18.749-45.727-17.633-0.2189 0.21885 2.0227 1.1482 4.9813 2.0652 22.286 6.9073 55.098 23.332 64.676 32.375 2.1677 2.0465 3.0568 8.4809 1.1719 8.4809-0.5156 0-0.9375 0.63281-0.9375 1.4062 0 1.9854-1.3153 1.75-4.3812-0.78429-17.913-14.807-51.472-29.197-87.494-37.517-49.575-11.45-107.99-16.908-193.59-18.088-120.53-1.6604-212.39 8.0449-271.88 28.726-12.589 4.3765-35.434 16.026-45 22.947-4.6406 3.3575-8.7539 6.1084-9.1406 6.1131-0.3867 5e-3 -0.7031-0.62426-0.7031-1.3977zm64.532-42.206c3.437-1.2021 5.7956-2.2171 5.2414-2.2555-1.2975-0.0898-14.59 4.4221-15.316 5.1988-0.6399 0.68447 1.4405 0.0767 10.075-2.9433zm26.874-0.45027c0.3187-0.51562 0.1327-0.9375-0.4134-0.9375-0.546 0-0.9928 0.42188-0.9928 0.9375 0 0.51563 0.186 0.9375 0.4134 0.9375s0.6742-0.42187 0.9928-0.9375zm-11.973-4.3164c-0.3115-0.31152-1.1201-0.34482-1.7969-0.074-0.7479 0.29927-0.5257 0.52142 0.5664 0.5664 0.9883 0.0407 1.542-0.18087 1.2305-0.4924zm31.191-0.37109c0-0.51562-0.186-0.9375-0.4134-0.9375s-0.6742 0.42188-0.9929 0.9375c-0.3186 0.51563-0.1326 0.9375 0.4135 0.9375 0.546 0 0.9928-0.42187 0.9928-0.9375zm392.81 0.52408c0-0.22738-0.4219-0.67415-0.9375-0.99283s-0.9375-0.13264-0.9375 0.41342c0 0.54605 0.4219 0.99283 0.9375 0.99283s0.9375-0.18604 0.9375-0.41342zm31.621-0.15299c-0.3115-0.31152-1.1201-0.34482-1.7969-0.074-0.7479 0.29927-0.5257 0.52142 0.5664 0.5664 0.9883 0.0407 1.542-0.18087 1.2305-0.4924zm-450.21-1.3086c1.1819-0.50786 1.3552-0.80572 0.4688-0.80572-0.7734 0-2.25 0.36257-3.2813 0.80572-1.1818 0.50786-1.3551 0.80572-0.4687 0.80572 0.7734 0 2.25-0.36257 3.2812-0.80572zm33.281 0c0-0.51562-0.4219-0.9375-0.9375-0.9375s-0.9375 0.42188-0.9375 0.9375c0 0.51563 0.4219 0.9375 0.9375 0.9375s0.9375-0.42187 0.9375-0.9375zm377.81 0c0-0.51562-0.4219-0.9375-0.9375-0.9375s-0.9375 0.42188-0.9375 0.9375c0 0.51563 0.4219 0.9375 0.9375 0.9375s0.9375-0.42187 0.9375-0.9375zm34.219 0.0622c-1.0312-0.41605-3.3515-1.0056-5.1562-1.31-3.2349-0.54574-3.2283-0.53524 0.4687 0.74383 4.0231 1.3919 7.8926 1.8592 4.6875 0.56618zm-453.28-0.99966c0-0.51562-0.397-0.9375-0.8822-0.9375s-1.1429 0.42188-1.4616 0.9375c-0.3186 0.51563 0.078 0.9375 0.8822 0.9375 0.8039 0 1.4616-0.42187 1.4616-0.9375zm413.91 0c0.3187-0.51562 0.1327-0.9375-0.4134-0.9375-0.546 0-0.9928 0.42188-0.9928 0.9375 0 0.51563 0.186 0.9375 0.4134 0.9375s0.6742-0.42187 0.9928-0.9375zm46.875 0c-0.3186-0.51562-0.9763-0.9375-1.4615-0.9375s-0.8822 0.42188-0.8822 0.9375c0 0.51563 0.6577 0.9375 1.4616 0.9375 0.8038 0 1.2008-0.42187 0.8821-0.9375zm-454.22-2.0534c0-1.2322-2.1307-0.46063-2.5979 0.94079-0.2283 0.68507 0.2003 0.8946 1.1133 0.54422 0.8165-0.31333 1.4846-0.98158 1.4846-1.485zm6.3086 1.487c-0.3115-0.31152-1.1201-0.34482-1.7969-0.074-0.7479 0.29927-0.5257 0.52142 0.5664 0.5664 0.9883 0.0407 1.542-0.18087 1.2305-0.4924zm40.269-1.4844c-0.2993-0.74787-0.5214-0.52573-0.5664 0.56641-0.041 0.98827 0.1809 1.542 0.4924 1.2305 0.3115-0.31153 0.3448-1.1201 0.074-1.7969zm352.5 0c-0.2993-0.74787-0.5214-0.52573-0.5664 0.56641-0.041 0.98827 0.1809 1.542 0.4924 1.2305 0.3115-0.31153 0.3448-1.1201 0.074-1.7969zm-385.95 0.17578c1.8559-0.59435 1.9534-0.7506 0.4687-0.7506-1.0312 0-2.9296 0.33777-4.2187 0.7506-1.8559 0.59435-1.9534 0.7506-0.4688 0.7506 1.0313 0 2.9297-0.33777 4.2188-0.7506zm36.562 0c0-0.51562-0.4219-0.9375-0.9375-0.9375s-0.9375 0.42188-0.9375 0.9375c0 0.51563 0.4219 0.9375 0.9375 0.9375s0.9375-0.42187 0.9375-0.9375zm2.3437 0c0.3187-0.51562 0.1327-0.9375-0.4134-0.9375-0.546 0-0.9928 0.42188-0.9928 0.9375 0 0.51563 0.186 0.9375 0.4134 0.9375s0.6742-0.42187 0.9928-0.9375zm342.66 0c0-0.51562-0.4468-0.9375-0.9928-0.9375-0.5461 0-0.7321 0.42188-0.4135 0.9375 0.3187 0.51563 0.7655 0.9375 0.9929 0.9375s0.4134-0.42187 0.4134-0.9375zm2.8125 0c0-0.51562-0.4219-0.9375-0.9375-0.9375s-0.9375 0.42188-0.9375 0.9375c0 0.51563 0.4219 0.9375 0.9375 0.9375s0.9375-0.42187 0.9375-0.9375zm40.059 0.37109c-0.3115-0.31152-1.1201-0.34482-1.7969-0.074-0.7479 0.29927-0.5257 0.52142 0.5664 0.5664 0.9883 0.0407 1.542-0.18087 1.2305-0.4924zm10.098-0.37109c-0.3186-0.51562-0.9763-0.9375-1.4615-0.9375s-0.8822 0.42188-0.8822 0.9375c0 0.51563 0.6577 0.9375 1.4616 0.9375 0.8038 0 1.2008-0.42187 0.8821-0.9375zm-441.09-1.9459c0-0.44429-0.6328-0.56495-1.4063-0.26816-0.7734 0.2968-1.4062 0.90313-1.4062 1.3474 0 0.44429 0.6328 0.56495 1.4062 0.26816 0.7735-0.29681 1.4063-0.90313 1.4063-1.3474zm425.62 1.0084c-1.2891-0.41283-3.1875-0.7506-4.2188-0.7506-1.4846 0-1.3871 0.15625 0.4688 0.7506 1.2891 0.41283 3.1875 0.7506 4.2187 0.7506 1.4847 0 1.3872-0.15625-0.4687-0.7506zm8.4375-0.9375c-0.7436-0.45955-1.5629-0.62461-1.8207-0.3668-0.2578 0.25782 0.1396 0.84475 0.8832 1.3043s1.5629 0.62461 1.8207 0.3668c0.2578-0.25782-0.1396-0.84475-0.8832-1.3043zm-422.13 0.37109c-0.3115-0.31152-1.1201-0.34482-1.7969-0.074-0.7479 0.29927-0.5257 0.52142 0.5664 0.5664 0.9883 0.0407 1.542-0.18087 1.2305-0.4924zm41.504-0.37109c0-0.51562-0.186-0.9375-0.4134-0.9375s-0.6742 0.42188-0.9929 0.9375c-0.3186 0.51563-0.1326 0.9375 0.4135 0.9375 0.546 0 0.9928-0.42187 0.9928-0.9375zm2.8125 0c0-0.51562-0.4219-0.9375-0.9375-0.9375s-0.9375 0.42188-0.9375 0.9375c0 0.51563 0.4219 0.9375 0.9375 0.9375s0.9375-0.42187 0.9375-0.9375zm2.3437 0c0.3187-0.51562 0.1327-0.9375-0.4134-0.9375-0.546 0-0.9928 0.42188-0.9928 0.9375 0 0.51563 0.186 0.9375 0.4134 0.9375s0.6742-0.42187 0.9928-0.9375zm316.41 0c0-0.51562-0.4468-0.9375-0.9928-0.9375-0.5461 0-0.7321 0.42188-0.4135 0.9375 0.3187 0.51563 0.7655 0.9375 0.9929 0.9375s0.4134-0.42187 0.4134-0.9375zm2.8125 0c0-0.51562-0.4219-0.9375-0.9375-0.9375s-0.9375 0.42188-0.9375 0.9375c0 0.51563 0.4219 0.9375 0.9375 0.9375s0.9375-0.42187 0.9375-0.9375zm2.8125 0.52408c0-0.22738-0.4219-0.67415-0.9375-0.99283s-0.9375-0.13264-0.9375 0.41342c0 0.54605 0.4219 0.99283 0.9375 0.99283s0.9375-0.18604 0.9375-0.41342zm-374.61-1.0931c2.1525-0.82602 1.8219-2.1566-0.3921-1.5776-1.0313 0.26968-1.875 0.863-1.875 1.3185 0 0.98013 0.2991 1.0143 2.2671 0.25911zm10.155-0.0519c-0.6446-0.26007-1.6992-0.26007-2.3438 0-0.6445 0.26008-0.1172 0.47287 1.1719 0.47287s1.8164-0.21279 1.1719-0.47287zm45.703 0.20747c0-0.22738-0.4219-0.67415-0.9375-0.99283-0.5156-0.31867-0.9375-0.13264-0.9375 0.41342s0.4219 0.99283 0.9375 0.99283 0.9375-0.18604 0.9375-0.41342zm4.3904-1.6374c-0.2993-0.74787-0.5214-0.52573-0.5664 0.56641-0.041 0.98827 0.1809 1.542 0.4924 1.2305 0.3115-0.31153 0.3448-1.1201 0.074-1.7969zm300 0c-0.2993-0.74787-0.5214-0.52573-0.5664 0.56641-0.041 0.98827 0.1809 1.542 0.4924 1.2305 0.3115-0.31153 0.3448-1.1201 0.074-1.7969zm5.9221 1.1133c0-0.51562-0.186-0.9375-0.4134-0.9375s-0.6742 0.42188-0.9929 0.9375c-0.3186 0.51563-0.1326 0.9375 0.4135 0.9375 0.546 0 0.9928-0.42187 0.9928-0.9375zm45 0c-1.2891-0.41283-3.1875-0.7506-4.2188-0.7506-1.4846 0-1.3871 0.15625 0.4688 0.7506 1.2891 0.41283 3.1875 0.7506 4.2187 0.7506 1.4847 0 1.3872-0.15625-0.4687-0.7506zm11.25 0.1003c0-1.0398-2.8841-2.2162-3.6227-1.4776-0.2979 0.298 0.079 0.93428 0.8374 1.414 1.7529 1.1086 2.7853 1.1322 2.7853 0.0637zm-402.66-1.4514c3.0938-0.69811 4.5704-1.272 3.2813-1.2753-2.6299-7e-3 -12.512 2.364-10.312 2.4742 0.7734 0.0387 3.9375-0.50071 7.0312-1.1988zm48.922-0.69969c-0.2993-0.74787-0.5214-0.52573-0.5664 0.56641-0.041 0.98827 0.1809 1.542 0.4924 1.2305 0.3115-0.31153 0.3448-1.1201 0.074-1.7969zm283.12 0c-0.2993-0.74787-0.5214-0.52573-0.5664 0.56641-0.041 0.98827 0.1809 1.542 0.4924 1.2305 0.3115-0.31153 0.3448-1.1201 0.074-1.7969zm-343.09-0.45357c0.2325-0.69854-0.3362-0.9146-1.563-0.59379-1.0607 0.27738-1.9285 0.90792-1.9285 1.4012 0 1.2446 3.0425 0.54099 3.4915-0.80744zm68.399-0.48393c-0.2993-0.74787-0.5214-0.52573-0.5664 0.56641-0.041 0.98827 0.1809 1.542 0.4924 1.2305 0.3115-0.31153 0.3448-1.1201 0.074-1.7969zm266.25 0c-0.2993-0.74787-0.5214-0.52573-0.5664 0.56641-0.041 0.98827 0.1809 1.542 0.4924 1.2305 0.3115-0.31153 0.3448-1.1201 0.074-1.7969zm58.891 1.1133c-1.5468-0.39361-3.8671-0.71566-5.1562-0.71566-2.0906 0-2.04 0.0773 0.4687 0.71566 1.5469 0.39361 3.8672 0.71566 5.1563 0.71566 2.0906 0 2.04-0.0772-0.4688-0.71566zm11.318-0.48888c-0.9936-0.75171-2.0361-1.1372-2.3166-0.8567-0.5885 0.58846 1.7926 2.2619 3.1856 2.2389 0.5157-8e-3 0.1246-0.6305-0.869-1.3822zm-327.3-0.38384c0.2967-0.48 0.1106-1.1377-0.4134-1.4616s-0.9528 0.0688-0.9528 0.87272c0 1.6468 0.5626 1.8892 1.3662 0.58886zm248.95-0.0648c0-0.51562-0.4468-0.9375-0.9928-0.9375-0.5461 0-0.7321 0.42188-0.4135 0.9375 0.3187 0.51563 0.7655 0.9375 0.9929 0.9375s0.4134-0.42187 0.4134-0.9375zm-318.07-1.5668c0.2325-0.69854-0.3362-0.9146-1.563-0.59379-1.0607 0.27738-1.9285 0.90792-1.9285 1.4012 0 1.2446 3.0425 0.54099 3.4915-0.80744zm11.743 0.94596c-0.6446-0.26007-1.6992-0.26007-2.3438 0-0.6445 0.26007-0.1172 0.47287 1.1719 0.47287s1.8164-0.2128 1.1719-0.47287zm60.703-0.31661c0-0.51562-0.4219-0.9375-0.9375-0.9375s-0.9375 0.42188-0.9375 0.9375c0 0.51563 0.4219 0.9375 0.9375 0.9375s0.9375-0.42187 0.9375-0.9375zm2.8125 0c0-0.51562-0.4219-0.9375-0.9375-0.9375s-0.9375 0.42188-0.9375 0.9375c0 0.51563 0.4219 0.9375 0.9375 0.9375s0.9375-0.42187 0.9375-0.9375zm2.8125 0c0-0.51562-0.4219-0.9375-0.9375-0.9375s-0.9375 0.42188-0.9375 0.9375c0 0.51563 0.4219 0.9375 0.9375 0.9375s0.9375-0.42187 0.9375-0.9375zm2.8125-0.52408c0-0.80387-0.4288-1.1966-0.9528-0.87272s-0.7101 0.98158-0.4134 1.4616c0.8036 1.3004 1.3662 1.0579 1.3662-0.58886zm228.75 0.52408c0-0.51562-0.4219-0.9375-0.9375-0.9375s-0.9375 0.42188-0.9375 0.9375c0 0.51563 0.4219 0.9375 0.9375 0.9375s0.9375-0.42187 0.9375-0.9375zm2.8125 0c0-0.51562-0.4219-0.9375-0.9375-0.9375s-0.9375 0.42188-0.9375 0.9375c0 0.51563 0.4219 0.9375 0.9375 0.9375s0.9375-0.42187 0.9375-0.9375zm2.8125 0c0-0.51562-0.186-0.9375-0.4134-0.9375s-0.6742 0.42188-0.9929 0.9375c-0.3186 0.51563-0.1326 0.9375 0.4135 0.9375 0.546 0 0.9928-0.42187 0.9928-0.9375zm61.172 0.31661c-0.6446-0.26007-1.6992-0.26007-2.3438 0-0.6445 0.26007-0.1172 0.47287 1.1719 0.47287s1.8164-0.2128 1.1719-0.47287zm12.891-0.31661c0-0.51562-0.8686-0.9375-1.9303-0.9375s-1.6696 0.42188-1.351 0.9375c0.3187 0.51563 1.1874 0.9375 1.9304 0.9375s1.3509-0.42187 1.3509-0.9375zm-371.94-0.61494c-0.6347-0.2568-1.9003-0.27243-2.8125-0.0348-0.9121 0.23769-0.3928 0.4478 1.154 0.46691 1.5469 0.0191 2.2932-0.17537 1.6585-0.43218zm66.31-0.32256c0-0.51562-0.186-0.9375-0.4134-0.9375s-0.6742 0.42188-0.9929 0.9375c-0.3186 0.51563-0.1326 0.9375 0.4135 0.9375 0.546 0 0.9928-0.42187 0.9928-0.9375zm3.75 0.52408c0-0.22738-0.4219-0.67415-0.9375-0.99283s-0.9375-0.13264-0.9375 0.41342c0 0.54605 0.4219 0.99283 0.9375 0.99283s0.9375-0.18604 0.9375-0.41342zm2.8125-0.52408c0-0.51562-0.4219-0.9375-0.9375-0.9375s-0.9375 0.42188-0.9375 0.9375c0 0.51563 0.4219 0.9375 0.9375 0.9375s0.9375-0.42187 0.9375-0.9375zm2.8125-0.46875c0-0.77344-0.4219-1.4062-0.9375-1.4062s-0.9375 0.63281-0.9375 1.4062 0.4219 1.4062 0.9375 1.4062 0.9375-0.63281 0.9375-1.4062zm201.56-0.52408c0-0.4852-0.4219-0.88217-0.9375-0.88217s-0.9375 0.65771-0.9375 1.4616 0.4219 1.2008 0.9375 0.88217 0.9375-0.97639 0.9375-1.4616zm2.8125 0.99283c0-0.51562-0.4219-0.9375-0.9375-0.9375s-0.9375 0.42188-0.9375 0.9375c0 0.51563 0.4219 0.9375 0.9375 0.9375s0.9375-0.42187 0.9375-0.9375zm2.8125 0c0-0.51562-0.4219-0.9375-0.9375-0.9375s-0.9375 0.42188-0.9375 0.9375c0 0.51563 0.4219 0.9375 0.9375 0.9375s0.9375-0.42187 0.9375-0.9375zm3.75 0.52408c0-0.22738-0.4219-0.67415-0.9375-0.99283s-0.9375-0.13264-0.9375 0.41342c0 0.54605 0.4219 0.99283 0.9375 0.99283s0.9375-0.18604 0.9375-0.41342zm2.8125 0c0-0.22738-0.4219-0.67415-0.9375-0.99283s-0.9375-0.13264-0.9375 0.41342c0 0.54605 0.4219 0.99283 0.9375 0.99283s0.9375-0.18604 0.9375-0.41342zm64.94-0.20152c-0.6347-0.2568-1.9003-0.27243-2.8125-0.0348-0.9121 0.23769-0.3928 0.4478 1.154 0.46691 1.5469 0.0191 2.2932-0.17537 1.6585-0.43218zm31.369 0.0486c-0.3115-0.31152-1.1201-0.34482-1.7969-0.074-0.7479 0.29927-0.5257 0.52142 0.5664 0.5664 0.9883 0.0407 1.542-0.18087 1.2305-0.4924zm-399.83-4.1954c47-10.648 114.39-17.73 168.75-17.736 12.342-1e-3 19.453-0.34475 19.453-0.93957 0-1.1913-13.431-1.1856-47.344 0.0201-57.607 2.0481-99.78 7.152-138.89 16.809-13.484 3.3293-24.762 6.7896-16.735 5.1342 1.5469-0.31899 8.1904-1.7984 14.763-3.2874zm4.9241 2.8868c0.3187-0.51562-0.2892-0.9375-1.3509-0.9375s-1.9303 0.42188-1.9303 0.9375c0 0.51563 0.6079 0.9375 1.3509 0.9375s1.6117-0.42187 1.9303-0.9375zm14.784 0.32256c-0.6347-0.2568-1.9003-0.27243-2.8125-0.0348-0.9121 0.23769-0.3928 0.4478 1.154 0.46691 1.5469 0.0191 2.2932-0.17537 1.6585-0.43218zm72.873-0.32256c0-0.51562-0.4219-0.9375-0.9375-0.9375s-0.9375 0.42188-0.9375 0.9375c0 0.51563 0.4219 0.9375 0.9375 0.9375s0.9375-0.42187 0.9375-0.9375zm3.75 0c0-0.51562-0.4219-0.9375-0.9375-0.9375s-0.9375 0.42188-0.9375 0.9375c0 0.51563 0.4219 0.9375 0.9375 0.9375s0.9375-0.42187 0.9375-0.9375zm2.8125 0c0-0.51562-0.4219-0.9375-0.9375-0.9375s-0.9375 0.42188-0.9375 0.9375c0 0.51563 0.4219 0.9375 0.9375 0.9375s0.9375-0.42187 0.9375-0.9375zm2.8125-0.52408c0-0.80387-0.4288-1.1966-0.9528-0.87272s-0.7101 0.98158-0.4134 1.4616c0.8036 1.3004 1.3662 1.0579 1.3662-0.58886zm176.68 0.58886c0.2967-0.48 0.1106-1.1377-0.4134-1.4616s-0.9528 0.0688-0.9528 0.87272c0 1.6468 0.5626 1.8892 1.3662 0.58886zm3.3213-0.0648c0-0.51562-0.4219-0.9375-0.9375-0.9375s-0.9375 0.42188-0.9375 0.9375c0 0.51563 0.4219 0.9375 0.9375 0.9375s0.9375-0.42187 0.9375-0.9375zm2.8125 0c0-0.51562-0.4219-0.9375-0.9375-0.9375s-0.9375 0.42188-0.9375 0.9375c0 0.51563 0.4219 0.9375 0.9375 0.9375s0.9375-0.42187 0.9375-0.9375zm3.75 0c0-0.51562-0.4219-0.9375-0.9375-0.9375s-0.9375 0.42188-0.9375 0.9375c0 0.51563 0.4219 0.9375 0.9375 0.9375s0.9375-0.42187 0.9375-0.9375zm74.315 0.32256c-0.6347-0.2568-1.9003-0.27243-2.8125-0.0348-0.9121 0.23769-0.3928 0.4478 1.154 0.46691 1.5469 0.0191 2.2932-0.17537 1.6585-0.43218zm14.748-0.21322c0-0.45548-0.8438-1.0488-1.875-1.3185-1.8428-0.48191-2.4791 0.29257-1.25 1.5216 0.9095 0.9095 3.125 0.76547 3.125-0.20316zm17.008-0.17601c-5.5686-2.2301-37.896-9.5434-53.449-12.091-32.15-5.267-60.384-7.8364-103.25-9.3956-31.058-1.1298-46.875-1.18-46.875-0.14861 0 0.43883 13.394 1.0476 29.766 1.3528 41.882 0.78076 79.154 3.8589 116.21 9.5975 16.502 2.5553 44.312 7.9866 52.301 10.215 5.3739 1.4986 8.5651 1.7825 5.2894 0.47066zm-360.95-1.3119c79.349-11.139 219.26-11.555 304.44-0.90494 10.499 1.3127 19.258 2.2178 19.464 2.0114 0.9036-0.90361-38.475-5.583-64.335-7.6451-34.904-2.7831-65.871-3.5739-119.89-3.0615-51.678 0.49025-65.066 1.0341-98.08 3.9842-16.919 1.5119-53.172 5.9635-53.828 6.6097-0.6658 0.65582 2.0486 0.43523 12.229-0.99382zm72.068 0.96517c0-0.22738-0.4219-0.67415-0.9375-0.99283s-0.9375-0.13264-0.9375 0.41342c0 0.54605 0.4219 0.99283 0.9375 0.99283s0.9375-0.18604 0.9375-0.41342zm2.8125-0.52408c0-0.51562-0.4219-0.9375-0.9375-0.9375s-0.9375 0.42188-0.9375 0.9375c0 0.51563 0.4219 0.9375 0.9375 0.9375s0.9375-0.42187 0.9375-0.9375zm3.2812 0c-0.3186-0.51562-0.9763-0.9375-1.4615-0.9375s-0.8822 0.42188-0.8822 0.9375c0 0.51563 0.6577 0.9375 1.4616 0.9375 0.8038 0 1.2008-0.42187 0.8821-0.9375zm3.2813 0c0-0.51562-0.4219-0.9375-0.9375-0.9375s-0.9375 0.42188-0.9375 0.9375c0 0.51563 0.4219 0.9375 0.9375 0.9375s0.9375-0.42187 0.9375-0.9375zm2.8125-0.52408c0-0.80387-0.4288-1.1966-0.9528-0.87272s-0.7101 0.98158-0.4134 1.4616c0.8036 1.3004 1.3662 1.0579 1.3662-0.58886zm3.75-0.46875c0-0.4852-0.4219-0.88217-0.9375-0.88217s-0.9375 0.65771-0.9375 1.4616 0.4219 1.2008 0.9375 0.88217 0.9375-0.97639 0.9375-1.4616zm137.44-0.62827c-0.953-0.95298-1.7393 0.48177-0.9574 1.7469 0.5907 0.95571 0.8115 0.95645 1.129 4e-3 0.2172-0.65136 0.1399-1.4392-0.1716-1.7507zm4.1211 1.6764c0-0.48519-0.4219-1.1429-0.9375-1.4616s-0.9375 0.0783-0.9375 0.88217 0.4219 1.4616 0.9375 1.4616 0.9375-0.39697 0.9375-0.88217zm2.8125-0.0553c0-0.51562-0.4219-0.9375-0.9375-0.9375s-0.9375 0.42188-0.9375 0.9375c0 0.51563 0.4219 0.9375 0.9375 0.9375s0.9375-0.42187 0.9375-0.9375zm3.75 0c0-0.51562-0.4219-0.9375-0.9375-0.9375s-0.9375 0.42188-0.9375 0.9375c0 0.51563 0.4219 0.9375 0.9375 0.9375s0.9375-0.42187 0.9375-0.9375zm2.8125 0c0-0.51562-0.4219-0.9375-0.9375-0.9375s-0.9375 0.42188-0.9375 0.9375c0 0.51563 0.4219 0.9375 0.9375 0.9375s0.9375-0.42187 0.9375-0.9375zm2.8125 0c0-0.51562-0.4219-0.9375-0.9375-0.9375s-0.9375 0.42188-0.9375 0.9375c0 0.51563 0.4219 0.9375 0.9375 0.9375s0.9375-0.42187 0.9375-0.9375zm-260.62-1.3185c0-0.85692-0.6564-1.1468-1.875-0.82816-1.0313 0.26968-1.875 0.863-1.875 1.3185s0.8437 0.82816 1.875 0.82816c1.0312 0 1.875-0.59332 1.875-1.3185zm109.69 0.38098c0-0.51562-0.4219-0.9375-0.9375-0.9375s-0.9375 0.42188-0.9375 0.9375c0 0.51563 0.4219 0.9375 0.9375 0.9375s0.9375-0.42187 0.9375-0.9375zm3.75 0c0-0.51562-0.4219-0.9375-0.9375-0.9375s-0.9375 0.42188-0.9375 0.9375c0 0.51563 0.4219 0.9375 0.9375 0.9375s0.9375-0.42187 0.9375-0.9375zm3.2812 0c0.3187-0.51562-0.078-0.9375-0.8821-0.9375-0.8039 0-1.4616 0.42188-1.4616 0.9375 0 0.51563 0.397 0.9375 0.8822 0.9375s1.1429-0.42187 1.4615-0.9375zm3.2813 0c0-0.51562-0.4219-0.9375-0.9375-0.9375s-0.9375 0.42188-0.9375 0.9375c0 0.51563 0.4219 0.9375 0.9375 0.9375s0.9375-0.42187 0.9375-0.9375zm3.75 0c0-0.51562-0.6577-0.9375-1.4616-0.9375-0.8038 0-1.2008 0.42188-0.8822 0.9375 0.3187 0.51563 0.9764 0.9375 1.4616 0.9375s0.8822-0.42187 0.8822-0.9375zm2.8125-0.52408c0-0.80387-0.4219-1.2008-0.9375-0.88217s-0.9375 0.97639-0.9375 1.4616c0 0.4852 0.4219 0.88217 0.9375 0.88217s0.9375-0.65771 0.9375-1.4616zm3.75-0.46875c0-0.4852-0.4219-0.88217-0.9375-0.88217s-0.9375 0.65771-0.9375 1.4616 0.4219 1.2008 0.9375 0.88217 0.9375-0.97639 0.9375-1.4616zm90.566-0.62827c-0.953-0.95298-1.7393 0.48177-0.9574 1.7469 0.5907 0.95571 0.8115 0.95645 1.129 4e-3 0.2172-0.65136 0.1399-1.4392-0.1716-1.7507zm4.1211 1.6764c0-0.48519-0.4219-1.1429-0.9375-1.4616s-0.9375 0.0783-0.9375 0.88217 0.4219 1.4616 0.9375 1.4616 0.9375-0.39697 0.9375-0.88217zm3.2812-0.0553c0.3187-0.51562-0.078-0.9375-0.8821-0.9375-0.8039 0-1.4616 0.42188-1.4616 0.9375 0 0.51563 0.397 0.9375 0.8822 0.9375s1.1429-0.42187 1.4615-0.9375zm3.2813 0c0-0.51562-0.4219-0.9375-0.9375-0.9375s-0.9375 0.42188-0.9375 0.9375c0 0.51563 0.4219 0.9375 0.9375 0.9375s0.9375-0.42187 0.9375-0.9375zm3.75 0c0-0.51562-0.6328-0.9375-1.4063-0.9375-0.7734 0-1.4062 0.42188-1.4062 0.9375 0 0.51563 0.6328 0.9375 1.4062 0.9375 0.7735 0 1.4063-0.42187 1.4063-0.9375zm2.8125 0c0-0.51562-0.4219-0.9375-0.9375-0.9375s-0.9375 0.42188-0.9375 0.9375c0 0.51563 0.4219 0.9375 0.9375 0.9375s0.9375-0.42187 0.9375-0.9375zm3.75 0c0-0.51562-0.4219-0.9375-0.9375-0.9375s-0.9375 0.42188-0.9375 0.9375c0 0.51563 0.4219 0.9375 0.9375 0.9375s0.9375-0.42187 0.9375-0.9375zm111.56 0.10934c0-0.45548-0.8438-1.0488-1.875-1.3185-1.2186-0.31868-1.875-0.0288-1.875 0.82816 0 0.72516 0.8437 1.3185 1.875 1.3185 1.0312 0 1.875-0.37268 1.875-0.82816zm-219.38-1.0468c0-0.51562-0.397-0.9375-0.8822-0.9375s-1.1429 0.42188-1.4616 0.9375c-0.3186 0.51563 0.078 0.9375 0.8822 0.9375 0.8039 0 1.4616-0.42187 1.4616-0.9375zm2.8125 0c0-0.51562-0.4219-0.9375-0.9375-0.9375s-0.9375 0.42188-0.9375 0.9375c0 0.51563 0.4219 0.9375 0.9375 0.9375s0.9375-0.42187 0.9375-0.9375zm3.75 0c0-0.51562-0.4219-0.9375-0.9375-0.9375s-0.9375 0.42188-0.9375 0.9375c0 0.51563 0.4219 0.9375 0.9375 0.9375s0.9375-0.42187 0.9375-0.9375zm3.75 0c0-0.51562-0.4219-0.9375-0.9375-0.9375s-0.9375 0.42188-0.9375 0.9375c0 0.51563 0.4219 0.9375 0.9375 0.9375s0.9375-0.42187 0.9375-0.9375zm3.75 0c0-0.51562-0.6328-0.9375-1.4063-0.9375-0.7734 0-1.4062 0.42188-1.4062 0.9375 0 0.51563 0.6328 0.9375 1.4062 0.9375 0.7735 0 1.4063-0.42187 1.4063-0.9375zm3.75 0c0-0.51562-0.6328-0.9375-1.4063-0.9375-0.7734 0-1.4062 0.42188-1.4062 0.9375 0 0.51563 0.6328 0.9375 1.4062 0.9375 0.7735 0 1.4063-0.42187 1.4063-0.9375zm2.8125 0c0-0.51562-0.4219-0.9375-0.9375-0.9375s-0.9375 0.42188-0.9375 0.9375c0 0.51563 0.4219 0.9375 0.9375 0.9375s0.9375-0.42187 0.9375-0.9375zm3.75-0.46875c0-0.77344-0.4219-1.4062-0.9375-1.4062s-0.9375 0.63281-0.9375 1.4062 0.4219 1.4062 0.9375 1.4062 0.9375-0.63281 0.9375-1.4062zm3.75 0c0-0.77344-0.4219-1.4062-0.9375-1.4062s-0.9375 0.63281-0.9375 1.4062 0.4219 1.4062 0.9375 1.4062 0.9375-0.63281 0.9375-1.4062zm3.75 0c0-0.77344-0.4219-1.4062-0.9375-1.4062s-0.9375 0.63281-0.9375 1.4062 0.4219 1.4062 0.9375 1.4062 0.9375-0.63281 0.9375-1.4062zm3.3789-1.1524c-0.953-0.95298-1.7393 0.48177-0.9574 1.7469 0.5907 0.95571 0.8115 0.95645 1.129 4e-3 0.2172-0.65136 0.1399-1.4392-0.1716-1.7507zm12.559 0.62827c0-0.4852-0.4219-0.88217-0.9375-0.88217s-0.9375 0.65771-0.9375 1.4616 0.4219 1.2008 0.9375 0.88217 0.9375-0.97639 0.9375-1.4616zm3.75 0.52408c0-0.77344-0.4219-1.4062-0.9375-1.4062s-0.9375 0.63281-0.9375 1.4062 0.4219 1.4062 0.9375 1.4062 0.9375-0.63281 0.9375-1.4062zm3.75 0c0-0.77344-0.4219-1.4062-0.9375-1.4062s-0.9375 0.63281-0.9375 1.4062 0.4219 1.4062 0.9375 1.4062 0.9375-0.63281 0.9375-1.4062zm3.75 0c0-0.77344-0.4219-1.4062-0.9375-1.4062s-0.9375 0.63281-0.9375 1.4062 0.4219 1.4062 0.9375 1.4062 0.9375-0.63281 0.9375-1.4062zm3.75 0.46875c0-0.51562-0.4219-0.9375-0.9375-0.9375s-0.9375 0.42188-0.9375 0.9375c0 0.51563 0.4219 0.9375 0.9375 0.9375s0.9375-0.42187 0.9375-0.9375zm3.75 0c0-0.51562-0.6328-0.9375-1.4063-0.9375-0.7734 0-1.4062 0.42188-1.4062 0.9375 0 0.51563 0.6328 0.9375 1.4062 0.9375 0.7735 0 1.4063-0.42187 1.4063-0.9375zm3.75 0c0-0.51562-0.6328-0.9375-1.4063-0.9375-0.7734 0-1.4062 0.42188-1.4062 0.9375 0 0.51563 0.6328 0.9375 1.4062 0.9375 0.7735 0 1.4063-0.42187 1.4063-0.9375zm2.8125 0c0-0.51562-0.4219-0.9375-0.9375-0.9375s-0.9375 0.42188-0.9375 0.9375c0 0.51563 0.4219 0.9375 0.9375 0.9375s0.9375-0.42187 0.9375-0.9375zm3.75 0c0-0.51562-0.4219-0.9375-0.9375-0.9375s-0.9375 0.42188-0.9375 0.9375c0 0.51563 0.4219 0.9375 0.9375 0.9375s0.9375-0.42187 0.9375-0.9375zm3.75 0c0-0.51562-0.4219-0.9375-0.9375-0.9375s-0.9375 0.42188-0.9375 0.9375c0 0.51563 0.4219 0.9375 0.9375 0.9375s0.9375-0.42187 0.9375-0.9375zm2.8125 0c0-0.51562-0.4219-0.9375-0.9375-0.9375s-0.9375 0.42188-0.9375 0.9375c0 0.51563 0.4219 0.9375 0.9375 0.9375s0.9375-0.42187 0.9375-0.9375zm-207.66-0.9375c0.3187-0.51562-0.2892-0.9375-1.3509-0.9375s-1.9303 0.42188-1.9303 0.9375c0 0.51563 0.6079 0.9375 1.3509 0.9375s1.6117-0.42187 1.9303-0.9375zm163.59 0c0-0.51562-0.4219-0.9375-0.9375-0.9375s-0.9375 0.42188-0.9375 0.9375c0 0.51563 0.4219 0.9375 0.9375 0.9375s0.9375-0.42187 0.9375-0.9375zm4.6875 0c0-0.51562-0.4219-0.9375-0.9375-0.9375s-0.9375 0.42188-0.9375 0.9375c0 0.51563 0.4219 0.9375 0.9375 0.9375s0.9375-0.42187 0.9375-0.9375zm165 0c0-0.51562-0.8686-0.9375-1.9303-0.9375s-1.6696 0.42188-1.351 0.9375c0.3187 0.51563 1.1874 0.9375 1.9304 0.9375s1.3509-0.42187 1.3509-0.9375zm-322.5-1.875c0-0.51562-0.8438-0.9375-1.875-0.9375-1.0313 0-1.875 0.42188-1.875 0.9375 0 0.51563 0.8437 0.9375 1.875 0.9375 1.0312 0 1.875-0.42187 1.875-0.9375zm312.19 0c0-0.51562-0.8438-0.9375-1.875-0.9375-1.0313 0-1.875 0.42188-1.875 0.9375 0 0.51563 0.8437 0.9375 1.875 0.9375 1.0312 0 1.875-0.42187 1.875-0.9375zm-300-1.875c0-0.51562-0.8189-0.9375-1.8197-0.9375s-2.0804 0.42188-2.3991 0.9375c-0.3286 0.53171 0.4591 0.9375 1.8197 0.9375 1.3195 0 2.3991-0.42187 2.3991-0.9375zm288.28 0c-0.3186-0.51562-1.3982-0.9375-2.399-0.9375s-1.8197 0.42188-1.8197 0.9375c0 0.51563 1.0796 0.9375 2.3991 0.9375 1.3606 0 2.1483-0.40579 1.8196-0.9375zm-275.16-1.9843c0-0.45552-1.0547-0.82821-2.3438-0.82821-1.3522 0-2.3437 0.53992-2.3437 1.2762 0 0.8558 0.7721 1.1286 2.3437 0.8282 1.2891-0.24642 2.3438-0.82072 2.3438-1.2762zm262.5 0.57804c0-0.78125-0.8333-1.4062-1.875-1.4062-2.3094 0-2.4803 1.5793-0.2344 2.1662 0.9024 0.23581 1.7461 0.47769 1.875 0.5375 0.1289 0.0598 0.2344-0.52406 0.2344-1.2975zm-249.61-2.1094c0.2288-0.68736-0.4174-1.1719-1.563-1.1719-1.1515 0-1.9531 0.60533-1.9531 1.475 0 1.723 2.9254 1.4708 3.5161-0.30311zm235.63 0.23437c-0.01-0.51562-0.8729-1.0723-1.9246-1.2371-1.8854-0.2954-2.5366 0.76884-1.2547 2.0507 0.9116 0.91158 3.1943 0.32737 3.1793-0.81366zm-220.4-1.745c0-0.8558-0.7721-1.1286-2.3438-0.8282-1.289 0.24642-2.3437 0.82072-2.3437 1.2762s1.0547 0.82821 2.3437 0.82821c1.3523 0 2.3438-0.53992 2.3438-1.2762zm206.25 0.33875c0-0.51562-0.3874-0.9375-0.8608-0.9375-0.4735 0-1.5282-0.25607-2.3438-0.56905-0.9731-0.37342-1.4829-0.0511-1.4829 0.9375 0 0.98199 0.8161 1.5066 2.3437 1.5066 1.2891 0 2.3438-0.42187 2.3438-0.9375zm-189.6-1.6406c0.242-0.73468-0.5176-1.1719-2.0359-1.1719-1.5755 0-2.4219 0.51425-2.4219 1.4714 0 1.7631 3.864 1.5034 4.4578-0.29957zm172.73 0.23437c0-0.875-0.8854-1.4062-2.3438-1.4062-2.2761 0-2.9933 0.91287-1.7187 2.1875 1.1793 1.1794 4.0625 0.62491 4.0625-0.78125zm-154.69-1.4063c0-0.51562-1.0547-0.9375-2.3438-0.9375-1.289 0-2.3437 0.42188-2.3437 0.9375 0 0.51563 1.0547 0.9375 2.3437 0.9375 1.2891 0 2.3438-0.42187 2.3438-0.9375zm20.625-1.0468c0-0.45552-1.2656-0.82821-2.8125-0.82821-2.5859 0-3.5354 0.83964-2.3217 2.0533 0.7556 0.75559 5.1342-0.2892 5.1342-1.2251zm96.562 0.054c0-0.48524-1.2656-0.88221-2.8125-0.88221-3.2728 0-3.8041 1.5812-0.7031 2.0922 2.4438 0.40278 3.5156 0.0338 3.5156-1.2101zm19.688 0.99279c0-0.51562-1.0547-0.9375-2.3438-0.9375-1.289 0-2.3437 0.42188-2.3437 0.9375 0 0.51563 1.0547 0.9375 2.3437 0.9375 1.2891 0 2.3438-0.42187 2.3438-0.9375zm-93.979-1.6406c0.252-0.76733-0.6131-1.1719-2.5058-1.1719-1.9989 0-2.8906 0.45301-2.8906 1.4685 0 1.7865 4.799 1.5227 5.3964-0.29664zm22.729 0.23437c0-0.78125-0.8333-1.4062-1.875-1.4062s-1.875 0.625-1.875 1.4062 0.8333 1.4062 1.875 1.4062 1.875-0.625 1.875-1.4062zm4.6875 0c0-0.77344-0.6328-1.4062-1.4063-1.4062-0.7734 0-1.4062 0.63281-1.4062 1.4062s0.6328 1.4062 1.4062 1.4062c0.7735 0 1.4063-0.63281 1.4063-1.4062zm24.375 0c0-0.9375-0.9375-1.4062-2.8125-1.4062-2.688 0-3.5315 0.84353-2.1875 2.1875 1.2272 1.2272 5 0.63771 5-0.78125zm-40.688-25.406c-0.4538-1.1826-0.9052-1.3448-1.6552-0.59478-0.5672 0.56719-0.7505 1.763-0.4073 2.6573 0.4538 1.1826 0.9052 1.3448 1.6552 0.59478 0.5672-0.56719 0.7505-1.763 0.4073-2.6573zm6 0.5625c0-2.1875-0.4167-2.8125-1.875-2.8125s-1.875 0.625-1.875 2.8125 0.4167 2.8125 1.875 2.8125 1.875-0.625 1.875-2.8125zm5.45-0.77532c0.2171-2.198-0.089-2.9747-1.1719-2.9747-1.0565 0-1.4656 0.93775-1.4656 3.3594 0 4.2359 2.2131 3.9131 2.6375-0.38469zm3.925 0.30657c0-1.8047-0.4219-3.2812-0.9375-3.2812s-0.9375 1.4766-0.9375 3.2812 0.4219 3.2812 0.9375 3.2812 0.9375-1.4766 0.9375-3.2812zm6.5625 0.40001c0-2.1785-0.3786-2.8073-1.5521-2.5781-1.5271 0.29824-2.5326 3.2218-1.6174 4.7027 1.1919 1.9285 3.1695 0.60292 3.1695-2.1246zm4.6875 1.0616c0-1.0008-0.4219-2.0804-0.9375-2.3991-0.5317-0.32861-0.9375 0.45902-0.9375 1.8197 0 1.3195 0.4219 2.3991 0.9375 2.3991s0.9375-0.81885 0.9375-1.8197zm209.06 41.195c-0.7734-0.49984-0.9844-0.90878-0.4688-0.90878 0.5157 0 1.5704 0.40894 2.3438 0.90878s0.9844 0.90878 0.4687 0.90878c-0.5156 0-1.5703-0.40894-2.3437-0.90878z"/>
  <g transform="translate(-51.972 -321.65)">
   <g fill-rule="evenodd" stroke-width="0">
    <path d="m-1859-422.27c0.4353-2.4437 0.5432-4.8874-0.01-7.3312 5.6595 0.93576 14.293-1.7495 15.432 4.6898 6.5301-3.1076 13.92-2.6296 13.912-1.3963l0.016 6.9972c-5.0334-2.5047-10.12-0.30971-15.006 0.58021-3.0077-4.9832-10.026-3.6236-14.348-3.5395z" fill="#409f11"/>
    <path d="m-1859-429.65c0.4353-2.4437 0.5432-4.8874-0.01-7.3312 5.6595 0.93576 14.293-1.7495 15.432 4.6898 6.5317-3.649 13.882-2.2441 13.91-1.4499l0.041 7.3985c0.1612-0.9025-8.049-1.6143-13.958 1.4655-1.032-6.7418-11.784-3.5284-15.422-4.7138z" fill="#fff"/>
    <path d="m-1859-436.91c0.4353-2.4437 0.5432-4.8874-0.01-7.3312 5.6595 0.93576 14.731-1.7495 15.87 4.6898 5.91-2.2644 13.381-1.4392 13.477-1.1988v7.1002c0.01-1.6848-12.301-0.21447-13.979 1.4485-0.8826-6.5144-10.258-3.9174-15.361-4.7082z" fill="#db861c"/>
   </g>
   <g transform="matrix(.081458 0 0 .081458 -1844.3 -430.1)">
    <circle r="20" fill="#008"/>
    <circle r="17.5" fill="#fff"/>
    <circle r="3.5" fill="#008"/>
    <g id="a">
     <g id="d">
      <g id="c">
       <g id="b">
        <circle transform="matrix(.99144 .13053 -.13053 .99144 17.35 2.2842)" r=".875" fill="#008"/>
        <path d="m0 17.5 0.6-10.5l-0.6-5-0.6 5 0.6 10.5z" fill="#008"/>
       </g>
       <use transform="matrix(.96593 .25882 -.25882 .96593 0 0)" width="100%" height="100%" xlink:href="#b"/>
      </g>
      <use transform="matrix(.86603 .5 -.5 .86603 0 0)" width="100%" height="100%" xlink:href="#c"/>
     </g>
     <use transform="matrix(.5 .86603 -.86603 .5 0 0)" width="100%" height="100%" xlink:href="#d"/>
    </g>
    <use transform="matrix(-.5 .86603 -.86603 -.5 0 0)" width="100%" height="100%" xlink:href="#a"/>
    <use transform="matrix(-.5 -.86603 .86603 -.5 0 0)" width="100%" height="100%" xlink:href="#a"/>
   </g>
  </g>
  <g transform="translate(0,-26)">
   <rect x="-2221.9" y="-448.74" width="121.24" height="3" stroke-width="0"/>
   <rect x="-1723.6" y="-448.74" width="121.24" height="3" stroke-width="0"/>
   <text transform="scale(1.0967 .91185)" x="-1906.1702" y="-480.65762" fill="#000000" font-family="sans-serif" font-size="29.658px" letter-spacing="0px" stroke-width="1px" word-spacing="0px" style="line-height:125%">
    <tspan x="-1906.1702" y="-480.65762" font-family="'Times New Roman'">PARLIAMENT OF INDIA</tspan>
   </text>
  </g>
 </g>
</svg>
